<svg xmlns="http://www.w3.org/2000/svg" width="579" height="28" fill="currentColor" class="parentheses-left" viewBox="0 0 579 28">
  <path
    d="m 289.10646,26.786394 c -0.32368,-0.95674 -0.88701,-4.69673 -0.88701,-5.88896 v -1.26146 l 0.75284,-0.47015 0.75283,-0.47016 0.3001,0.47349 c 0.34983,0.55196 0.41216,5.34704 0.0904,6.95578 -0.22442,1.1221 -0.73918,1.4595 -1.00917,0.66146 z m 6.69215,-4.55568 c -0.77305,-0.61589 -2.00086,-1.68082 -2.72846,-2.36651 l -1.32292,-1.2467 v -0.810347 -0.810349 h 0.6829 0.6829 l 2.40391,2.654206 c 1.32215,1.45981 2.4039,2.83565 2.4039,3.05741 0,0.79133 -0.73783,0.62524 -2.12223,-0.47771 z m -14.03434,0.54054 c -0.35427,-0.35427 0.42995,-1.55373 2.32803,-3.56067 l 1.76082,-1.861811 0.47761,0.39638 c 0.26269,0.218009 0.46354,0.654755 0.44634,0.970541 l -0.0313,0.57417 -2.08206,1.85208 c -2.06137,1.83369 -2.46709,2.06168 -2.89946,1.62931 z m -3.61798,-4.394073 -0.23703,-0.383516 0.3044,-0.295705 c 0.16742,-0.162638 1.48348,-0.96126 2.92458,-1.774717 l 2.62017,-1.479013 0.48344,0.658928 0.48344,0.658928 -0.98694,0.796362 c -0.90165,0.727536 -4.27416,2.202246 -5.03631,2.202246 -0.1753,0 -0.42539,-0.17258 -0.55575,-0.383513 z m 18.36344,-1.169 -2.11666,-0.810558 v -0.846935 -0.846935 l 0.87083,0.09769 c 0.47896,0.05373 1.66958,0.548611 2.64583,1.099733 l 1.775,1.00204 0.11406,0.575961 0.11407,0.575962 -0.64323,-0.0182 c -0.35378,-0.01001 -1.59573,-0.382953 -2.7599,-0.828758 z m -9.64492,-2.342731 c -0.83051,-0.964165 -1.93703,-1.954412 -2.45894,-2.200548 L 283.45695,12.21738 144.46251,12.479403 5.4680648,12.741426 3.8805648,11.958701 2.2930648,11.175975 1.1465348,9.4604125 1.4809916e-5,7.7448485 v -1.70742 c 0,-1.915292 0.582550000084,-3.504508 1.284619990084,-3.504508 h 0.46582 l 0.2148,0.970139 c 0.11813,0.533576 0.35955,1.449579 0.53648,2.035562 l 0.32168,1.065423 2.03738,1.120055 2.03738,1.120054 82.3641152,-0.142358 c 45.30026,-0.0783 107.80116,-0.245419 138.8909,-0.371382 l 56.52678,-0.229024 2.23886,2.3402315 2.23886,2.340232 1.54944,-1.941764 c 0.8522,-1.0679695 1.75836,-2.0219315 2.01371,-2.1199155 0.62793,-0.240961 157.90259,-0.899927 224.97115,-0.942609 l 53.98441,-0.03436 0.88195,-0.459402 c 0.48507,-0.252671 1.467,-1.067798 2.18207,-1.811394 l 1.30013,-1.351993 0.41476,-1.665027 c 0.33875,-1.359879 1.26767,-2.87752604 1.43651,-2.34691904 0.023,0.07227 0.2258,1.24264004 0.45069,2.60083504 l 0.40887,2.469444 -0.30718,1.283438 -0.30719,1.283438 -1.34847,1.316748 -1.34847,1.3167485 -3.46934,0.653845 -3.46933,0.653845 -136.17222,0.203987 c -74.89472,0.112193 -136.71332,0.28698 -137.37466,0.388415 l -1.20244,0.184427 -1.79617,1.858815 -1.79618,1.858815 -1.7849,0.437201 z" />
</svg>
