<svg xmlns="http://www.w3.org/2000/svg" width="579" height="28" fill="currentColor" class="parentheses-left" viewBox="0 0 579 28">
  <path
    d="m 289.64492,0.43728845 c 0.32368,0.95673995 0.88701,4.69672995 0.88701,5.88895995 v 1.26146 l -0.75284,0.47015 -0.75283,0.47016 -0.3001,-0.47349 c -0.34983,-0.55196 -0.41216,-5.34704 -0.0904,-6.95578 0.22442,-1.12209995 0.73918,-1.45949995 1.00917,-0.66145995 z m -6.69216,4.55567995 c 0.77306,0.61589 2.00087,1.68082 2.72847,2.36651 l 1.32292,1.2467 v 0.81035 0.8103496 h -0.6829 -0.6829 l -2.40391,-2.6542096 c -1.32216,-1.45981 -2.40391,-2.83565 -2.40391,-3.05741 0,-0.79133 0.73783,-0.62524 2.12223,0.47771 z m 14.03435,-0.54054 c 0.35427,0.35427 -0.42995,1.55373 -2.32803,3.56067 l -1.76082,1.86181 -0.47761,-0.39638 c -0.26269,-0.21801 -0.46354,-0.65475 -0.44634,-0.97054 l 0.0313,-0.57417 2.08206,-1.85208 c 2.06137,-1.83369 2.46709,-2.06168 2.89946,-1.62931 z m 3.61798,4.39408 0.23703,0.38351 -0.3044,0.29571 c -0.16742,0.16263 -1.48348,0.9612596 -2.92458,1.7747096 l -2.62017,1.47902 -0.48344,-0.65893 -0.48344,-0.65893 0.98694,-0.79636 c 0.90165,-0.7275396 4.27416,-2.2022496 5.03631,-2.2022496 0.1753,0 0.42539,0.17258 0.55575,0.38352 z m -18.36345,1.1689996 2.11667,0.81055 v 0.84694 0.84693 l -0.87083,-0.0977 c -0.47897,-0.0537 -1.66959,-0.54861 -2.64584,-1.09973 l -1.775,-1.00204 -0.11406,-0.5759596 -0.11407,-0.57596 0.64323,0.0182 c 0.35378,0.01 1.59573,0.38295 2.7599,0.8287596 z m 9.64493,2.34273 c 0.83051,0.96416 1.93703,1.95441 2.45894,2.20054 l 0.94892,0.44753 138.99444,-0.26203 138.99445,-0.26202 3.175,1.56545 c 0,0 1.33702,1.36734 2.17804,3.15511 0.79513,1.690189 -0.23932,3.625118 -1.0316,5.556947 -0.57555,-1.474154 -0.85247,-4.28607 -2.34384,-5.060197 -1.73395,-0.90005 -3.40771,-1.32004 -3.40771,-1.32004 l -82.36412,0.14236 c -45.30026,0.0783 -107.80117,0.24542 -138.8909,0.37138 l -56.52678,0.22903 -2.23886,-2.34023 -2.23886,-2.34024 -1.54944,1.94177 c -0.8522,1.06797 -1.75836,2.02193 -2.01371,2.11991 -0.62793,0.24096 -157.9026,0.89993 -224.971158,0.94261 l -53.9844105,0.0344 c -1.39382,0.2426 -2.47441,0.790438 -3.42136,1.784485 0,0 -0.77999,1.178548 -1.0808,1.815299 -0.61062,1.292558 -0.92988,2.586159 -1.45302,4.034948 C 0.47253153,25.501026 0.28220153,23.749416 -8.4667044e-6,22.044971 L 0.61436153,19.478098 c 0,0 1.58237997,-2.0534 2.69693997,-2.63349 2.08776,-1.08661 6.9386705,-1.30769 6.9386705,-1.30769 l 136.172218,-0.20399 c 74.89473,-0.11219 136.71332,-0.28698 137.37467,-0.38842 l 1.20244,-0.18442 1.79617,-1.85882 1.79618,-1.85881 1.7849,-0.4372 z" />
</svg>
