<svg xmlns="http://www.w3.org/2000/svg" width="123mm" height="50 mm" fill="currentColor" class="parentheses-left" viewBox="0 0 123 50">
  <path
     id="use6-9"
     style="font-variation-settings:normal;display:inline;vector-effect:none;fill:#aaa5b6;fill-opacity:1;stroke-width:1;stroke-linecap:butt;stroke-linejoin:miter;stroke-miterlimit:4;stroke-dasharray:none;stroke-dashoffset:0;stroke-opacity:1;-inkscape-stroke:none;stop-color:#000000"
     d="M 13.73235,-2.5521218e-6 6.9446498,6.7938974 c 0,0 -6.98567494,6.6992006 -6.92567494,7.8527506 5.72e-4,0.0109 -0.043,21.12824 0,21.58722 0.02987,0.3188 3.66592294,4.51238 3.66592294,4.51238 l 3.527433,3.51452 v 6.16655 h 1.415418 c -0.05176,-4.69398 0.180373,-4.59022 2.2303892,-2.50889 l 1.647445,1.67224 0.91984,0.82011 96.414257,0.0165 0.91209,-0.88729 1.69706,-1.67173 c 2.6642,-3.07553 2.16718,-0.5705 2.18036,2.55902 h 1.41542 v -6.16604 l 3.70417,-3.69176 c 2.30259,-2.29475 3.58167,-3.3085 3.4277,-4.60489 l 5.1e-4,-21.15788 c -0.16805,-1.47484 -2.19274,-3.31174 -6.67969,-7.8191606 L 109.54165,3.7744787e-4 Z M 14.437216,1.4107674 h 94.382864 l 6.04097,6.08541 c 2.53086,2.5494806 6.58068,6.5745506 6.62328,7.3569206 0,0 0.13266,19.75615 -0.0468,21.1345 -0.13142,1.00938 -2.43466,3.21104 -2.43466,3.21104 -2.79433,2.8159 -3.13075,2.78961 -2.95848,-0.39636 0,0 -0.10645,-1.85421 -0.14031,-2.78216 -0.25795,-7.06836 -0.23777,-20.77077 -0.47877,-21.21379 -0.32467,-0.59683 -3.87883,-4.02043 -3.87883,-4.02043 L 107.04856,6.3675674 H 16.208167 l -4.497916,4.4183306 c 0,0 -3.6814332,3.09478 -4.0447152,3.97341 -0.28923,0.69953 -0.06779,21.11281 -0.205161,21.24778 l -0.04961,2.99361 c -0.05302,3.19922 -0.358395,3.01824 -3.223575,0.12816 -1.420982,-1.43334 -2.402884,-2.90288 -2.541847,-3.18806 -0.141986,-0.29139 0.04323,-20.83439 0.163703,-21.13449 0.09937,-0.24754 2.262972,-2.98141 6.395476,-7.1334106 z m 2.463416,6.35 h 89.455518 l 3.51451,3.5279506 c 0,0 3.54466,3.34056 3.73856,3.7047 0.18651,0.35025 0.20169,20.92402 0.20169,20.92402 l -3.76353,3.4171 -3.33778,3.35122 H 16.547165 l -3.337781,-3.35122 c 0,0 -3.5438642,-3.28811 -3.7672122,-3.51709 -0.201572,-0.20666 -0.0067,-21.01112 -0.0067,-21.01112 l 3.9506632,-3.51761 z M 9.1248788,37.843678 c 0.492,0.0118 1.4670452,0.9815 3.3977252,2.92024 l 3.319177,3.33313 h 91.573729 l 3.31918,-3.33313 c 3.86337,-3.87949 3.89847,-3.88042 3.89847,-0.0775 v 2.89801 l -2.74143,2.72593 -2.74195,2.72542 H 14.074964 l -2.725415,-2.74196 -2.7259322,-2.74143 0.09922,-2.78277 c 0.06743,-1.89128 -0.09022,-2.93771 0.402043,-2.92593 z" />
  <path
     id="path7"
     style="font-variation-settings:normal;display:inline;vector-effect:none;fill:#aaa5b6;fill-opacity:1;stroke-width:1;stroke-linecap:butt;stroke-linejoin:miter;stroke-miterlimit:4;stroke-dasharray:none;stroke-dashoffset:0;stroke-opacity:1;-inkscape-stroke:none;stop-color:#000000"
     d="m 7.2123428,49.049858 v 5.9247 l -3.175,2.96261 -3.17499994,2.96261 V 114.1384 l 3.17499994,3.16001 3.175,3.16053 v 5.7397 5.74022 h 5.7753602 5.77536 l 3.01325,3.175 3.013773,3.175 h 73.67716 l 3.013244,-3.175 3.01377,-3.175 h 5.77536 5.77484 v -5.74022 -5.7397 l 3.175,-3.16053 3.175,-3.16001 V 60.899778 l -3.175,-2.96261 -3.175,-2.96261 v -5.9247 h -1.41232 c 0.0225,4.2237 -0.15338,4.27401 -2.23298,2.16266 l -1.64744,-1.67277 -0.41493,-0.48989 -97.357935,0.0234 -0.473332,0.51714 -1.69705,1.67173 c -1.9805402,1.95076 -2.2215792,2.13922 -2.1828802,-2.21226 z m 6.6280202,1.39733 h 95.576597 l 2.60811,2.52904 2.60811,2.52905 V 119.7763 l -5.38365,5.3759 -5.38417,5.37538 H 19.374913 l -5.37538,-5.38365 -5.3759002,-5.38417 V 55.505278 l 2.6081102,-2.52905 z m -6.9220602,7.26725 c 0.022,-0.002 0.0386,0.003 0.0491,0.0134 0.39684,0.39684 0.268218,59.691302 -0.04651,59.885762 -0.16038,0.0991 -1.27129,-0.8089 -2.4691,-2.01745 l -2.17816,-2.19728 V 61.891928 l 2.22467,-2.20452 c 1.12781,-1.11779 2.15994,-1.9547 2.42,-1.97301 z m 109.4077972,0 c -0.0577,-0.23075 1.28599,0.83627 2.43292,1.97301 l 2.22416,2.20452 v 51.546212 l -2.22416,2.20452 c -1.22339,1.21252 -2.3348,2.09437 -2.46961,1.95957 -0.32047,-0.32047 -0.32047,-59.553912 0,-59.874392 0.008,-0.008 0.0405,0.002 0.0367,-0.0134 z M 8.9295528,122.62418 c 0.54716,-0.0582 7.8953102,7.34563 7.5845502,7.65638 -0.31501,0.31501 -7.3413202,0.32593 -7.6553502,0.0119 -0.34003,-0.34003 -0.28966,-7.45055 0.0543,-7.6631 0.005,-0.003 0.0101,-0.004 0.0165,-0.005 z m 105.2070172,0.28371 c 0,0.56108 0.49912,1.2938 0.42219,3.94084 l -0.1018,3.50263 -3.76411,0.0997 c -4.82676,0.12803 -4.82309,0.18347 -0.28887,-4.33669 2.12957,-2.12297 3.73259,-3.73359 3.73259,-3.20652 z m -92.587627,9.27592 c 0.32047,-0.32047 79.838967,-0.32047 80.159437,0 0.1348,0.1348 -0.74705,1.24621 -1.959564,2.46961 l -2.20451,2.22416 h -71.83128 l -2.20451,-2.22416 c -1.212523,-1.2234 -2.094373,-2.33481 -1.959573,-2.46961 z" />
</svg>
