<?xml version="1.0" encoding="UTF-8" standalone="no"?>
<!-- Created with Inkscape (http://www.inkscape.org/) -->

<svg
   width="173.91962mm"
   height="99.293152mm"
   viewBox="0 0 173.91962 99.293151"
   version="1.1"
   id="svg1"
   xml:space="preserve"
   xmlns="http://www.w3.org/2000/svg"
   xmlns:svg="http://www.w3.org/2000/svg"><defs
     id="defs1" /><path
     id="path6-8"
     style="font-variation-settings:normal;display:none;vector-effect:none;fill:#000000;fill-opacity:1;stroke-width:1;stroke-linecap:butt;stroke-linejoin:miter;stroke-miterlimit:4;stroke-dasharray:none;stroke-dashoffset:0;stroke-opacity:1;-inkscape-stroke:none;stop-color:#000000"
     d="M 6.349998,-7.7248184e-6 V 0.56739227 5.9246923 l -3.175,2.96261 L -2.0621432e-6,11.849912 v 75.30238 75.302898 L 3.174998,165.6152 l 3.175,3.16053 v 5.7397 5.74022 h 5.775359 5.77536 l 3.01325,3.175 3.01377,3.175 H 86.960072 149.9924 l 3.01325,-3.175 3.01377,-3.175 h 5.77536 5.77484 v -5.74022 -5.7397 l 3.175,-3.16053 3.175,-3.16001 V 87.152292 11.849912 l -3.175,-2.9626097 -3.175,-2.96261 V 0.56791227 -7.7248184e-6 H 166.1573 C 166.15823,0.17463227 166.1583,0.35896227 166.1583,0.55344227 c 0,3.58619003 -0.16759,3.70715003 -2.23398,1.60921003 L 162.27688,0.48988227 162.77401,-7.7248184e-6 H 11.110907 L 11.643177,0.54052227 9.946128,2.2122523 c -2.0665,2.03543 -2.18488,1.9418 -2.18488,-1.73477003 0,-0.16665 6.5e-4,-0.32569 0.002,-0.4774899948184 z M 12.978017,1.3973223 h 73.982055 73.982048 l 2.60811,2.52904 2.60811,2.52905 V 87.274252 168.09309 l -5.38365,5.3759 -5.38417,5.37538 H 86.951802 18.512567 l -5.37538,-5.38365 -5.375899,-5.38417 V 87.265982 6.4554123 l 2.608109,-2.52905 z m -6.922059,7.26725 c 0.022,-0.002 0.0386,0.003 0.0491,0.0134 0.1348,0.1348 0.24494,35.5313697 0.24494,78.6587597 0,43.127388 -0.13106,78.494558 -0.29145,78.593658 -0.16038,0.0991 -1.27129,-0.8089 -2.4691,-2.01745 l -2.17816,-2.19728 v -74.436798 -74.4368 l 2.22467,-2.20452 c 1.12781,-1.1177897 2.15994,-1.9546997 2.42,-1.9730097 z m 161.795302,0 c 0.23764,-0.01 1.28599,0.83627 2.43292,1.9730097 l 2.22416,2.20452 v 74.45643 74.456438 l -2.22416,2.20452 c -1.22339,1.21252 -2.3348,2.09437 -2.46961,1.95957 -0.32047,-0.32047 -0.32047,-156.9205677 0,-157.2410477 0.008,-0.008 0.0208,-0.0128 0.0367,-0.0134 z M 8.067208,170.94097 c 0.54716,-0.0582 7.895309,7.34563 7.584549,7.65638 -0.31501,0.31501 -7.341319,0.32593 -7.655349,0.0119 -0.34003,-0.34003 -0.28966,-7.45055 0.0543,-7.6631 0.005,-0.003 0.0101,-0.004 0.0165,-0.005 z m 157.594522,0.28371 c 0.56085,0.016 0.49907,1.2938 0.42219,3.94084 l -0.1018,3.50263 -3.76411,0.0997 c -4.82676,0.12803 -4.82309,0.18347 -0.28887,-4.33669 2.12957,-2.12297 3.20573,-3.22154 3.73259,-3.20652 z M 20.686597,180.5006 c 0.32047,-0.32047 132.226473,-0.32047 132.546943,0 0.1348,0.1348 -0.74705,1.24621 -1.95957,2.46961 l -2.20451,2.22416 H 86.960072 24.850677 l -2.20451,-2.22416 c -1.21252,-1.2234 -2.09437,-2.33481 -1.95957,-2.46961 z" /><path
     style="display:none;fill:#e8e9ed;fill-opacity:1;stroke-width:1;-inkscape-stroke:none"
     d="m 0.17456094,-13.207008 c 0.113609,-2.73765 13.14193306,-13.92264 13.14193306,-13.92264 l 147.358816,-0.13012 c 0,0 13.14193,12.49134 13.14193,14.44311 0,1.95177 -12.49134,13.40217027 -12.49134,13.40217027 l -148.659996,0.19518 c 0,0 -12.57236706,-12.03525027 -12.49134306,-13.98770027 z"
     id="path3" /><path
     id="use6-9"
     style="font-variation-settings:normal;display:none;vector-effect:none;fill:#aaa5b6;fill-opacity:1;stroke-width:1;stroke-linecap:butt;stroke-linejoin:miter;stroke-miterlimit:4;stroke-dasharray:none;stroke-dashoffset:0;stroke-opacity:1;-inkscape-stroke:none;stop-color:#000000"
     d="m 12.870017,-27.883068 -6.787699,6.7939 c 0,0 -6.98568006,6.69921 -6.92568006,7.85276 0.0814,1.56583 3.66593006,4.9325103 3.66593006,4.9325103 l 3.52743,3.51452 V 0.56739227 1.3771623 h 1.41542 c -0.003,-0.27207 -0.004,-0.57157003 -0.004,-0.89968003 0,-3.58618997 0.1681,-3.70715997 2.23449,-1.60920997 l 1.647439,1.67224997 -0.84956,0.83664003 H 163.1509 l -0.87385,-0.88728003 1.69705,-1.67172997 c 2.0665,-2.03542 2.18437,-1.94127 2.18437,1.73528997 0,0.29835 -8.2e-4,0.57262003 -0.004,0.82372003 h 1.41542 V 0.56791227 -4.7888677 l 3.70417,-3.69176 c 4.91952,-4.9027703 5.16692,-3.9584803 -3.25148,-12.4152703 l -6.95565,-6.98717 H 86.968612 Z m 0.70487,1.41077 h 73.385185 73.385178 l 6.04098,6.08542 c 4.05728,4.08715 6.11913,6.4233 6.2792,7.11378 0.30375,1.31027 -2.13733,3.4220103 -2.13733,3.4220103 -2.79433,2.8159 -2.95848,2.79426 -2.95848,-0.3963603 v -2.43138 l -4.49792,-4.41833 -4.49791,-4.41834 H 86.960072 15.345837 l -4.49792,4.41834 -4.497919,4.41833 v 2.43138 c 0,3.1996603 -0.15996,3.2166803 -3.02514,0.3266003 -3.21871006,-3.2466903 -3.36480006,-2.8723503 4.01733,-10.2893003 z m 2.46341,6.35 h 70.921775 70.921248 l 3.51452,3.52795 3.51451,3.52743 -3.33778,3.3517403 -3.33778,3.35121 H 86.960072 15.684827 l -3.33778,-3.35121 -3.337259,-3.3517403 3.513999,-3.52743 z m -7.775749,8.91625 c 0.492,0.0118 1.46704,0.9815 3.397719,2.9202403 l 3.31918,3.33313 h 71.980625 71.980618 l 3.31918,-3.33313 c 3.86337,-3.8794903 3.89847,-3.8804103 3.89847,-0.0775 v 2.89802 l -2.74144,2.72593 -2.74195,2.72540997 H 86.944052 13.212627 l -2.72541,-2.74194997 -2.725929,-2.74143 v -2.882 c 0,-1.8924803 0.009,-2.8384803 0.50126,-2.8267003 z" /><path
     id="path7"
     style="font-variation-settings:normal;display:inline;vector-effect:none;fill:#aaa5b6;fill-opacity:1;stroke-width:1;stroke-linecap:butt;stroke-linejoin:miter;stroke-miterlimit:4;stroke-dasharray:none;stroke-dashoffset:0;stroke-opacity:1;-inkscape-stroke:none;stop-color:#000000"
     d="M 6.349998,-7.7248184e-6 V 0.56739227 5.9246923 l -3.175,2.96261 L -2.0621432e-6,11.849912 v 31.38155 31.91123 L 3.174998,78.302702 l 3.175,3.16053 v 5.7397 5.74022 h 5.775359 5.77536 l 3.01325,3.175 3.01377,3.175 H 86.960072 149.9924 l 3.01325,-3.175 3.01377,-3.175 h 5.77536 5.77484 v -5.74022 -5.7397 l 3.175,-3.16053 3.175,-3.16001 v -31.91123 -31.38155 l -3.175,-2.9626097 -3.175,-2.96261 V 0.56791227 -7.7248184e-6 H 166.1573 C 166.15823,0.17463227 166.1583,0.35896227 166.1583,0.55344227 c 0,3.58619003 -0.16759,3.70715003 -2.23398,1.60921003 L 162.27688,0.48988227 162.77401,-7.7248184e-6 H 11.110907 L 11.643177,0.54052227 9.946128,2.2122523 c -2.0665,2.03543 -2.18488,1.9418 -2.18488,-1.73477003 0,-0.16665 6.5e-4,-0.32569 0.002,-0.4774899948184 z M 12.978017,1.3973223 h 73.982055 73.982048 l 2.60811,2.52904 2.60811,2.52905 v 36.8980097 37.42717 l -5.38365,5.3759 -5.38417,5.37538 H 86.951802 18.512567 l -5.37538,-5.38365 -5.375899,-5.38417 V 43.345152 6.4554123 l 2.608109,-2.52905 z m -6.922059,7.26725 c 0.022,-0.002 0.0386,0.003 0.0491,0.0134 0.1348,0.1348 0.24494,-8.38946003 0.24494,34.7379297 0,43.12739 -0.13106,35.10289 -0.29145,35.20199 -0.16038,0.0991 -1.27129,-0.8089 -2.4691,-2.01745 l -2.17816,-2.19728 v -31.04513 -30.51597 l 2.22467,-2.20452 c 1.12781,-1.1177897 2.15994,-1.9546997 2.42,-1.9730097 z m 161.795302,0 c 0.23764,-0.01 1.28599,0.83627 2.43292,1.9730097 l 2.22416,2.20452 v 30.5356 31.06477 l -2.22416,2.20452 c -1.22339,1.21252 -2.3348,2.09437 -2.46961,1.95957 -0.32047,-0.32047 -0.32047,-69.6080697 0,-69.9285497 0.008,-0.008 0.0208,-0.0128 0.0367,-0.0134 z M 8.067208,83.628472 c 0.54716,-0.0582 7.895309,7.34563 7.584549,7.65638 -0.31501,0.31501 -7.341319,0.32593 -7.655349,0.0119 -0.34003,-0.34003 -0.28966,-7.45055 0.0543,-7.6631 0.005,-0.003 0.0101,-0.004 0.0165,-0.005 z m 157.594522,0.28371 c 0,0.56108 0.49912,1.2938 0.42219,3.94084 l -0.1018,3.50263 -3.76411,0.0997 c -4.82676,0.12803 -4.82309,0.18347 -0.28887,-4.33669 2.12957,-2.12297 3.73259,-3.73359 3.73259,-3.20652 z m -144.975133,9.27592 c 0.32047,-0.32047 132.226473,-0.32047 132.546943,0 0.1348,0.1348 -0.74705,1.24621 -1.95957,2.46961 l -2.20451,2.22416 H 86.960072 24.850677 l -2.20451,-2.22416 c -1.21252,-1.2234 -2.09437,-2.33481 -1.95957,-2.46961 z" /></svg>
