<?xml version="1.0" encoding="UTF-8" standalone="no"?>
<!-- Created with Inkscape (http://www.inkscape.org/) -->

<svg
   width="382.94046mm"
   height="166.49734mm"
   viewBox="0 0 382.94046 166.49734"
   version="1.1"
   id="svg1"
   xml:space="preserve"
   xmlns="http://www.w3.org/2000/svg"
   xmlns:svg="http://www.w3.org/2000/svg"><defs
     id="defs1" /><path
     style="display:none;fill:#000000"
     d="m 231.86003,0.32178016 c -1.95521,-1.0087 -4.21057,-2.37101996 -5.01191,-3.02737996 -1.44189,-1.18101 -1.45142,-1.20416 -0.91915,-2.23345 0.29581,-0.57204 0.72555,-0.96826 0.95497,-0.88049 0.22942,0.0878 2.00462,0.56962 3.9449,1.07078 4.08904,1.05617 6.45008,1.85209 7.10401,2.3948 0.37816,0.31385 0.35774,0.58542 -0.1124,1.49458996 -0.70411,1.36162 -1.93837,3.05776004 -2.20726,3.03323004 -0.10903,-0.01 -1.79795,-0.84338 -3.75316,-1.85208004 z M 226.30878,-15.182359 c -0.089,-1.02125 0.26169,-1.91358 0.32584,-1.98875 0.0642,-0.0752 3.83537,-0.88255 8.38048,-1.79417 l 8.26384,-1.65749 0.20926,1.265 c 0.29695,1.79502 0.26663,4.96785 -0.0476,4.97617 -0.14552,0.004 -2.40771,0.23883 -5.02708,0.52216 -2.61938,0.28333 -5.62649,0.27857 -8.44065,0.22938 -1.18479,-0.0207 -3.54804,-0.2207 -3.54804,-0.2207 z m -2.67457,-11.16584 c -0.60261,-0.56292 -0.91163,-0.99507 -0.91163,-1.18523 0,-0.19017 0.59216,-0.77828 1.10076,-1.31784 0.54469,-0.57785 1.97894,-2.09471 3.3328,-3.29533 1.43556,-1.27307 3.73343,-3.06947 4.33679,-3.38686 l 2.01226,-1.05851 2.26823,1.11851 c 2.19947,1.08461 2.2498,1.1394 1.66043,1.80767 -1.505,1.7065 -11.32778,8.34107 -12.34933,8.34107 -0.19507,0 -0.84771,-0.46057 -1.45031,-1.02348 z"
     id="path2" /><path
     style="display:none;fill:#000000"
     d="m 206.67346,0.77921116 c -0.90102,-0.68799 -1.63823,-1.31529 -1.63823,-1.39402 0,-0.34536 5.37785,-3.57598996 8.19298,-4.92174996 l 3.08788,-1.47617 0.90989,0.94972 0.90988,0.94972 -2.2482,1.98607 c -2.12495,1.8772 -6.78452,5.15731 -7.32622,5.15731 -0.13736,0 -0.98695,-0.5629 -1.88798,-1.25088004 z m -1.28545,-15.32966916 -5.46805,-0.17639 -0.10358,-2.1489 c -0.0742,-1.53866 0.0403,-2.26833 0.40318,-2.56947 0.64183,-0.53267 10.63149,0.43064 13.8022,1.33096 1.98344,0.56319 2.12579,0.67632 2.42084,1.92391 0.17241,0.72904 0.25597,1.37493 0.18569,1.4353 -0.30288,0.2602 -6.19293,0.36741 -11.24028,0.20459 z m 10.52719,-11.73437 c -4.98594,-3.353849 -10.17441,-7.656259 -10.17441,-7.957709 0,-0.46303 4.15378,-3.23906 4.83346,-3.23027 0.70234,0.009 2.92625,2.40605 6.70219,7.22374 2.89695,3.696179 3.18701,4.373399 2.31905,5.414379 l -0.64854,0.58921 z"
     id="path1" /><path
     style="display:none;fill:#000000"
     d="m 279.54119,10.696776 c 0.32368,0.95674 0.88701,4.69673 0.88701,5.88896 v 1.26146 l -0.75284,0.47015 -0.75283,0.47016 -0.3001,-0.47349 c -0.34983,-0.55196 -0.41216,-5.34704 -0.0904,-6.95578 0.22442,-1.1221 0.73918,-1.4595008 1.00917,-0.66146 z m -6.69216,4.55568 c 0.77306,0.61589 2.00087,1.68082 2.72847,2.36651 l 1.32292,1.2467 v 0.81035 0.81035 h -0.6829 -0.6829 l -2.40391,-2.65421 c -1.32216,-1.45981 -2.40391,-2.83565 -2.40391,-3.05741 0,-0.79133 0.73783,-0.62524 2.12223,0.47771 z m 14.03435,-0.54054 c 0.35427,0.35427 -0.42995,1.55373 -2.32803,3.56067 l -1.76082,1.86181 -0.47761,-0.39638 c -0.26269,-0.21801 -0.46354,-0.65475 -0.44634,-0.97054 l 0.0313,-0.57417 2.08206,-1.85208 c 2.06137,-1.83369 2.46709,-2.06168 2.89946,-1.62931 z m 3.61798,4.39408 0.23703,0.38351 -0.3044,0.29571 c -0.16742,0.16263 -1.48348,0.96126 -2.92458,1.77471 l -2.62017,1.47902 -0.48344,-0.65893 -0.48344,-0.65893 0.98694,-0.79636 c 0.90165,-0.72754 4.27416,-2.20225 5.03631,-2.20225 0.1753,0 0.42539,0.17258 0.55575,0.38352 z m -18.36345,1.169 2.11667,0.81055 v 0.84694 0.84693 l -0.87083,-0.0977 c -0.47897,-0.0537 -1.66959,-0.54861 -2.64584,-1.09973 l -1.775,-1.00204 -0.11406,-0.57596 -0.11407,-0.57596 0.64323,0.0182 c 0.35378,0.01 1.59573,0.38295 2.7599,0.82876 z m 9.64493,2.34273 c 0.83051,0.96416 1.93703,1.95441 2.45894,2.20054 l 0.94892,0.44753 138.99444,-0.26203 138.99445,-0.26202 3.175,1.56545 c 0,0 1.33702,1.36734 2.17804,3.15511 0.79513,1.690189 -0.23932,3.625118 -1.0316,5.556947 -0.57555,-1.474154 -0.85247,-4.28607 -2.34384,-5.060197 -1.73395,-0.90005 -3.40771,-1.32004 -3.40771,-1.32004 l -82.36412,0.14236 c -45.30026,0.0783 -107.80117,0.24542 -138.8909,0.37138 l -56.52678,0.22903 -2.23886,-2.34023 -2.23886,-2.34024 -1.54944,1.94177 c -0.8522,1.06797 -1.75836,2.02193 -2.01371,2.11991 -0.62793,0.24096 -157.9026,0.89993 -224.971144,0.94261 l -53.9844103,0.0344 c -1.39382,0.2426 -2.47441,0.790438 -3.42136,1.784485 0,0 -0.77999,1.178548 -1.0808,1.815299 -0.61062,1.292558 -0.92988,2.586159 -1.45302,4.034948 -0.64726,-1.614224 -0.83759,-3.365834 -1.1197997,-5.070279 l 0.6143697,-2.566873 c 0,0 1.58238,-2.0534 2.69694,-2.63349 2.08776,-1.08661 6.93867004,-1.30769 6.93867004,-1.30769 L 136.31846,25.592416 c 74.89473,-0.11219 136.71332,-0.28698 137.37467,-0.38842 l 1.20244,-0.18442 1.79617,-1.85882 1.79618,-1.85881 1.7849,-0.4372 z"
     id="path4" /><path
     style="display:none;fill:#000000"
     d="m 277.3372,48.065826 c -1.05492,-1.74899 -1.04062,-2.16912 -2.96643,-2.60913 -3.86778,-0.88372 -16.35349,-0.12595 -64.10347,-0.33702 l -61.38333,-0.27134 -0.0978,-0.71894 0.0978,-0.33939 45.50833,-0.25035 c 25.02959,-0.13768 53.25817,-0.29643 62.73018,-0.35277 l 17.22183,-0.10244 c 0,0 1.40369,-0.27271 2.83162,-2.56339 1.57867,-2.53249 0.84654,-2.7767 2.68583,0.0693 1.19605,1.85066 1.54901,2.50472 2.70368,2.51041 l 17.48381,0.0862 c 9.41035,0.0563 37.58847,0.21509 62.61806,0.35277 l 45.50833,0.25035 0.17251,0.59817 -0.17251,0.46016 -61.38333,0.27134 c -49.93809,0.22075 -63.49798,-0.33715 -64.22594,0.0118 -2.08094,0.99742 -2.02997,1.75327 -2.84032,2.99274 -1.15338,1.76417 -1.14797,1.99884 -2.38885,-0.0584 z m 2.01433,-2.72174 c 0.4292,-0.43581 1.61638,-0.8687 1.61638,-0.8687 0,0 -1.16685,-0.64827 -1.5794,-1.15291 -0.41905,-0.5126 -0.82877,-1.80512 -0.82877,-1.80512 0,0 -0.50528,1.19035 -0.91731,1.67597 -0.43343,0.51084 -1.58232,1.23921 -1.58232,1.23921 0,0 0.96288,0.52598 1.35123,0.90393 0.46403,0.4516 1.12351,1.58465 1.12351,1.58465 0,0 0.40131,-1.15524 0.81668,-1.57703 z"
     id="path5" /><path
     style="font-variation-settings:normal;display:none;opacity:1;vector-effect:none;fill:#000000;fill-opacity:1;stroke-width:1;stroke-linecap:butt;stroke-linejoin:miter;stroke-miterlimit:4;stroke-dasharray:none;stroke-dashoffset:0;stroke-opacity:1;-inkscape-stroke:none;stop-color:#000000;stop-opacity:1"
     d="m 221.92876,294.76783 -3.01359,-3.175 h -5.77515 -5.77514 v -5.74 -5.73999 l -3.175,-3.16029 -3.175,-3.16029 v -75.30254 -75.30255 l 3.175,-2.96266 3.175,-2.96267 v -5.35709 -5.3571 l -3.52778,-3.51454 c 0,0 -3.5844,-3.366684 -3.66579,-4.932514 -0.06,-1.15355 6.92559,-7.85237 6.92559,-7.85237 l 6.78758,-6.79428 h 74.09835 74.09834 l 6.95575,6.98746 c 8.4184,8.45679 8.1711,7.51254 3.25158,12.415314 l -3.70417,3.69156 v 5.35678 5.35678 l 3.175,2.96267 3.175,2.96266 v 75.30255 75.30254 l -3.175,3.16029 -3.175,3.16029 v 5.73999 5.74 h -5.77514 -5.77515 l -3.01359,3.175 -3.01359,3.175 h -63.03225 -63.03226 z m 130.3597,-0.46046 c 1.21252,-1.2234 2.09428,-2.33465 1.95948,-2.46945 -0.32047,-0.32047 -132.2262,-0.32047 -132.54667,0 -0.1348,0.1348 0.74696,1.24605 1.95948,2.46945 l 2.20458,2.22435 h 62.10928 62.10927 z M 216.6665,289.93473 c 0.31444,-0.31444 -7.21304,-7.89118 -7.60142,-7.65115 -0.34392,0.21255 -0.39393,7.32292 -0.0539,7.66295 0.31403,0.31404 7.34031,0.30321 7.65532,-0.0118 z m 145.12272,-5.1286 5.384,-5.3756 v -80.81895 -80.81895 l -2.60824,-2.52906 -2.60823,-2.52907 h -73.98214 -73.98215 l -2.60823,2.52907 -2.60824,2.52906 v 80.81054 80.81055 l 5.37559,5.384 5.3756,5.384 h 68.43902 68.43902 z m 5.30934,1.69653 c 0.1491,-5.13365 0.24161,-5.1173 -4.15493,-0.7344 -4.53422,4.52016 -4.5379,4.46494 0.28886,4.33691 l 3.76434,-0.0998 z m -159.73368,-87.8288 c 0,-43.12739 -0.11029,-78.52373 -0.24509,-78.65853 -0.13481,-0.1348 -1.24606,0.74697 -2.46945,1.95949 l -2.22435,2.20458 v 74.4368 74.43681 l 2.17784,2.19737 c 1.19781,1.20855 2.30906,2.11627 2.46944,2.01714 0.16039,-0.0991 0.29161,-35.46627 0.29161,-78.59366 z m 166.15834,-0.038 v -74.45649 l -2.22435,-2.20458 c -1.22339,-1.21252 -2.33464,-2.09429 -2.46945,-1.95949 -0.32047,0.32048 -0.32047,156.92064 0,157.24111 0.13481,0.1348 1.24606,-0.74696 2.46945,-1.95948 l 2.22435,-2.20458 z M 211.01029,110.20541 c -2.06639,-2.09795 -2.2343,-1.97702 -2.2343,1.60917 0,3.67657 0.11811,3.77037 2.18461,1.73494 l 1.69709,-1.67157 z m 156.16293,1.68512 c 0,-3.67656 -0.11811,-3.77036 -2.18461,-1.73494 l -1.69709,1.67157 1.6474,1.67255 c 2.06639,2.09794 2.2343,1.97701 2.2343,-1.60918 z m -2.74183,-3.29289 2.74183,-2.72575 v -2.89788 c 0,-3.802894 -0.0353,-3.802194 -3.89867,0.0773 l -3.31934,3.3332 H 287.97461 215.994 l -3.31934,-3.3332 c -3.86136,-3.877484 -3.89867,-3.878374 -3.89867,-0.0934 v 2.8818 l 2.72575,2.74183 2.72575,2.74183 h 73.73104 73.73102 z m -1.84411,-6.97581 3.33763,-3.351574 -3.51437,-3.5276 -3.51436,-3.5276 h -70.92157 -70.92158 l -3.51436,3.5276 -3.51437,3.5276 3.33763,3.351574 3.33763,3.35156 h 71.27505 71.27504 z m -155.2224,-0.53225 v -2.431074 l 4.49792,-4.41844 4.49791,-4.41844 h 71.6139 71.61389 l 4.49791,4.41844 4.49792,4.41844 v 2.431074 c 0,3.19062 0.16393,3.2126 2.95826,0.3967 0,0 2.44134,-2.112064 2.13759,-3.422334 -0.16007,-0.69048 -2.222,-3.02633 -6.27928,-7.11348 l -6.04095,-6.08541 h -73.38524 -73.38524 l -6.23241,6.2618 c -7.38213,7.41695 -7.23609,7.0429 -4.01738,10.289594 2.86518,2.89008 3.0252,2.87279 3.0252,-0.32687 z"
     id="path6" /><path
     id="path6-8"
     style="font-variation-settings:normal;display:none;vector-effect:none;fill:#000000;fill-opacity:1;stroke-width:1;stroke-linecap:butt;stroke-linejoin:miter;stroke-miterlimit:4;stroke-dasharray:none;stroke-dashoffset:0;stroke-opacity:1;-inkscape-stroke:none;stop-color:#000000"
     d="m 12.075199,112.42209 v 0.5674 5.3573 l -3.1750003,2.96261 -3.175,2.96261 v 75.30238 75.3029 l 3.175,3.16001 3.1750003,3.16053 v 5.7397 5.74022 h 5.77536 5.77536 l 3.01325,3.175 3.01377,3.175 H 92.685274 155.7176 l 3.01325,-3.175 3.01377,-3.175 h 5.77536 5.77484 v -5.74022 -5.7397 l 3.175,-3.16053 3.175,-3.16001 v -75.3029 -75.30238 l -3.175,-2.96261 -3.175,-2.96261 v -5.35678 -0.56792 h -1.41232 c 9.3e-4,0.17464 0.001,0.35897 0.001,0.55345 0,3.58619 -0.16759,3.70715 -2.23398,1.60921 l -1.64744,-1.67277 0.49713,-0.48989 H 16.836109 l 0.53227,0.54053 -1.69705,1.67173 c -2.0665,2.03543 -2.18488,1.9418 -2.18488,-1.73477 0,-0.16665 6.5e-4,-0.32569 0.002,-0.47749 z m 6.62802,1.39733 h 73.982055 73.982046 l 2.60811,2.52904 2.60811,2.52905 v 80.81884 80.81884 l -5.38365,5.3759 -5.38417,5.37538 H 92.677004 24.237769 l -5.37538,-5.38365 -5.3759,-5.38417 v -80.81057 -80.81057 l 2.60811,-2.52905 z m -6.92206,7.26725 c 0.022,-0.002 0.0386,0.003 0.0491,0.0134 0.1348,0.1348 0.24494,35.53137 0.24494,78.65876 0,43.12739 -0.13106,78.49456 -0.29145,78.59366 -0.16038,0.0991 -1.27129,-0.8089 -2.4691003,-2.01745 l -2.17816,-2.19728 v -74.4368 -74.4368 l 2.22467,-2.20452 c 1.1278103,-1.11779 2.1599403,-1.9547 2.4200003,-1.97301 z m 161.795301,0 c 0.23764,-0.01 1.28599,0.83627 2.43292,1.97301 l 2.22416,2.20452 v 74.45643 74.45644 l -2.22416,2.20452 c -1.22339,1.21252 -2.3348,2.09437 -2.46961,1.95957 -0.32047,-0.32047 -0.32047,-156.92057 0,-157.24105 0.008,-0.008 0.0208,-0.0128 0.0367,-0.0134 z M 13.792409,283.36307 c 0.54716,-0.0582 7.89531,7.34563 7.58455,7.65638 -0.31501,0.31501 -7.34132,0.32593 -7.65535,0.0119 -0.34003,-0.34003 -0.28966,-7.45055 0.0543,-7.6631 0.005,-0.003 0.0101,-0.004 0.0165,-0.005 z m 157.594521,0.28371 c 0.56085,0.016 0.49907,1.2938 0.42219,3.94084 l -0.1018,3.50263 -3.76411,0.0997 c -4.82676,0.12803 -4.82309,0.18347 -0.28887,-4.33669 2.12957,-2.12297 3.20573,-3.22154 3.73259,-3.20652 z M 26.411799,292.9227 c 0.32047,-0.32047 132.226471,-0.32047 132.546941,0 0.1348,0.1348 -0.74705,1.24621 -1.95957,2.46961 l -2.20451,2.22416 H 92.685274 30.575879 l -2.20451,-2.22416 c -1.21252,-1.2234 -2.09437,-2.33481 -1.95957,-2.46961 z" /><path
     style="display:inline;fill:#e8e9ed;fill-opacity:1;stroke-width:1;-inkscape-stroke:none"
     d="m 0.17456274,-13.207004 c 0.113609,-2.73765 13.14193426,-13.92264 13.14193426,-13.92264 l 356.908813,-0.13012 c 0,0 13.14193,12.49134 13.14193,14.44311 0,1.95177 -12.49134,13.40216916 -12.49134,13.40216916 l -358.209993,0.19518 c 0,0 -12.57236826,-12.03524916 -12.49134426,-13.98769916 z"
     id="path3" /><path
     id="use6-9"
     style="font-variation-settings:normal;display:inline;vector-effect:none;fill:#aaa5b6;fill-opacity:1;stroke-width:1;stroke-linecap:butt;stroke-linejoin:miter;stroke-miterlimit:4;stroke-dasharray:none;stroke-dashoffset:0;stroke-opacity:1;-inkscape-stroke:none;stop-color:#000000"
     d="m 12.87002,-27.883064 -6.7877003,6.7939 c 0,0 -6.98567996,6.69921 -6.92567996,7.85276 0.0814,1.56583 3.66592996,4.9325092 3.66592996,4.9325092 l 3.52743,3.51452 V 0.56739516 1.3771652 h 1.41542 c -0.003,-0.27207 -0.004,-0.57157004 -0.004,-0.89968004 0,-3.58618996 0.1681,-3.70715996 2.23449,-1.60920996 L 11.64335,0.54052516 10.79379,1.3771652 h 361.37794 l -0.87385,-0.88728004 1.69705,-1.67172996 c 2.0665,-2.03542 2.18437,-1.94127 2.18437,1.73528996 0,0.29835 -8.2e-4,0.57262004 -0.004,0.82372004 h 1.41542 V 0.56791516 -4.7888648 l 3.70417,-3.69176 c 4.91952,-4.9027692 5.16692,-3.9584792 -3.25148,-12.4152692 l -6.95565,-6.98717 H 189.09778 Z m 0.70487,1.41077 h 175.51435 180.27684 l 6.04098,6.08542 c 4.05729,4.087138 6.11913,6.4233 6.2792,7.11378 0.30375,1.31027 -2.13733,3.4220092 -2.13733,3.4220092 -2.79433,2.8159 -2.95848,2.79426 -2.95848,-0.3963592 v -2.43138 l -4.49792,-4.41833 -4.49791,-4.41834 H 189.08924 15.34584 l -4.49792,4.41834 -4.4979203,4.41833 v 2.43138 c 0,3.1996592 -0.15996,3.2166792 -3.02514,0.3265992 -3.21870996,-3.2466892 -3.36479996,-2.8723492 4.01733,-10.2892992 z m 2.46341,6.35 h 173.05094 177.81291 l 3.51452,3.52795 3.51451,3.52743 -3.33778,3.3517392 -3.33778,3.35121 H 189.08924 15.68483 l -3.33778,-3.35121 -3.3372603,-3.3517392 3.5140003,-3.52743 z m -7.7757503,8.91625 c 0.492,0.0118 1.46704,0.9815 3.3977203,2.9202392 l 3.31918,3.33313 h 174.10979 178.87228 l 3.31918,-3.33313 c 3.86337,-3.8794892 3.89847,-3.8804092 3.89847,-0.0775 v 2.89802 l -2.74144,2.72593 -2.74195,2.72540996 H 189.07322 13.21263 l -2.72541,-2.74194996 -2.7259303,-2.74143 v -2.882 c 0,-1.8924792 0.009,-2.8384792 0.50126,-2.8266992 z" /><path
     id="path7"
     style="font-variation-settings:normal;display:inline;vector-effect:none;fill:#aaa5b6;fill-opacity:1;stroke-width:1;stroke-linecap:butt;stroke-linejoin:miter;stroke-miterlimit:4;stroke-dasharray:none;stroke-dashoffset:0;stroke-opacity:1;-inkscape-stroke:none;stop-color:#000000"
     d="M 6.3499997,-4.8399939e-6 V 0.56739516 5.9246952 l -3.175,2.96261 L -2.6393859e-7,11.849916 v 54.13572 76.361234 L 3.1749997,145.50688 l 3.175,3.16053 v 5.7397 5.74022 h 5.7753603 5.77536 l 3.01325,3.175 3.01377,3.175 h 163.574 171.51149 l 3.01325,-3.175 3.01377,-3.175 h 5.77536 5.77484 v -5.74022 -5.7397 l 3.175,-3.16053 3.175,-3.16001 V 65.985636 11.849916 l -3.175,-2.9626108 -3.175,-2.96261 V 0.56791516 -4.8399939e-6 h -1.41232 C 375.17906,0.17463516 375.17913,0.35896516 375.17913,0.55344516 c 0,3.58619004 -0.16759,3.70715004 -2.23398,1.60921004 L 371.29771,0.48988516 371.79484,-4.8399939e-6 H 11.11091 L 11.64318,0.54052516 9.9461297,2.2122552 c -2.0665,2.03543 -2.18488,1.9418 -2.18488,-1.73477004 0,-0.16665 6.5e-4,-0.32569 0.002,-0.4774899999939 z M 12.97802,1.3973252 h 174.52372 182.46121 l 2.60811,2.52904 2.60811,2.52905 V 66.107596 147.98477 l -5.38365,5.3759 -5.38417,5.37538 H 187.49347 18.51257 L 13.13719,153.3524 7.7612897,147.96823 V 66.099326 6.4554152 L 10.3694,3.9263652 Z m -6.9220603,7.26725 c 0.022,-0.002 0.0386,0.003 0.0491,0.0134 0.1348,0.1348 0.24494,14.3647078 0.24494,57.4921008 0,43.127394 -0.13106,79.552894 -0.29145,79.651994 -0.16038,0.0991 -1.27129,-0.8089 -2.4691,-2.01745 l -2.17816,-2.19728 V 66.112206 12.842066 l 2.22467,-2.20452 c 1.12781,-1.1177908 2.15994,-1.9547008 2.42,-1.9730108 z m 370.8161303,0 c -0.0577,-0.230749 1.28599,0.83627 2.43292,1.9730108 l 2.22416,2.20452 v 53.28977 75.514774 l -2.22416,2.20452 c -1.22339,1.21252 -2.3348,2.09437 -2.46961,1.95957 -0.32047,-0.32047 -0.32047,-136.8122448 0,-137.1327248 0.008,-0.008 0.0406,0.002 0.0367,-0.0134 z M 8.0672097,150.83265 c 0.54716,-0.0582 7.8953103,7.34563 7.5845503,7.65638 -0.31501,0.31501 -7.3413203,0.32593 -7.6553503,0.0119 -0.34003,-0.34003 -0.28966,-7.45055 0.0543,-7.6631 0.005,-0.003 0.0101,-0.004 0.0165,-0.005 z m 366.6153503,0.28371 c 0,0.56108 0.49913,1.2938 0.42219,3.94084 l -0.1018,3.50263 -3.76411,0.0997 c -4.82676,0.12803 -4.82309,0.18347 -0.28887,-4.33669 2.12957,-2.12297 3.73259,-3.73359 3.73259,-3.20652 z M 20.6866,160.39228 c 0.32047,-0.32047 341.2473,-0.32047 341.56777,0 0.1348,0.1348 -0.74705,1.24621 -1.95957,2.46961 l -2.20451,2.22416 H 187.50174 24.85068 l -2.20451,-2.22416 c -1.21252,-1.2234 -2.09437,-2.33481 -1.95957,-2.46961 z" /></svg>
