<svg xmlns="http://www.w3.org/2000/svg" width="174" height="187" fill="currentColor" class="parentheses-left" viewBox="0 0 174 187">
  <path   
     d="M 6.3500004,2.2630561e-6 V 0.56740227 5.9247022 l -3.175,2.96261 L 3.0387899e-7,11.849922 V 87.152302 162.4552 L 3.1750004,165.61521 l 3.175,3.16053 v 5.7397 5.74022 h 5.7753596 5.77536 l 3.01325,3.175 3.01377,3.175 h 63.03233 63.03233 l 3.01325,-3.175 3.01377,-3.175 h 5.77536 5.77484 v -5.74022 -5.7397 l 3.175,-3.16053 3.175,-3.16001 V 87.152302 11.849922 l -3.175,-2.9626098 -3.175,-2.96261 V 0.56792227 2.2630561e-6 H 166.1573 C 166.15823,0.17464227 166.1583,0.35897227 166.1583,0.55345227 c 0,3.58618993 -0.16759,3.70714993 -2.23398,1.60920993 L 162.27688,0.48989227 162.77401,2.2630561e-6 H 11.11091 L 11.64318,0.54053227 9.9461304,2.2122622 c -2.0665,2.03543 -2.18488,1.9418 -2.18488,-1.73476993 0,-0.16665 6.5e-4,-0.32569 0.002,-0.4774900069439 z M 12.97802,1.3973322 h 73.98205 73.98205 l 2.60811,2.52904 2.60811,2.52905 V 87.274262 168.0931 l -5.38365,5.3759 -5.38417,5.37538 H 86.9518 18.51257 l -5.37538,-5.38365 -5.3758996,-5.38417 V 87.265992 6.4554222 L 10.3694,3.9263722 Z m -6.9220596,7.26725 c 0.022,-0.002 0.0386,0.003 0.0491,0.0134 0.1348,0.1348 0.24494,35.5313698 0.24494,78.6587598 0,43.127388 -0.13106,78.494558 -0.29145,78.593658 -0.16038,0.0991 -1.27129,-0.8089 -2.4691,-2.01745 l -2.17816,-2.19728 v -74.436798 -74.4368 l 2.22467,-2.20452 c 1.12781,-1.1177898 2.15994,-1.9546998 2.42,-1.9730098 z m 161.7952996,0 c 0.23764,-0.01 1.28599,0.83627 2.43292,1.9730098 l 2.22416,2.20452 v 74.45643 74.456438 l -2.22416,2.20452 c -1.22339,1.21252 -2.3348,2.09437 -2.46961,1.95957 -0.32047,-0.32047 -0.32047,-156.9205678 0,-157.2410478 0.008,-0.008 0.0208,-0.0128 0.0367,-0.0134 z M 8.0672104,170.94098 c 0.54716,-0.0582 7.8953096,7.34563 7.5845496,7.65638 -0.31501,0.31501 -7.3413196,0.32593 -7.6553496,0.0119 -0.34003,-0.34003 -0.28966,-7.45055 0.0543,-7.6631 0.005,-0.003 0.0101,-0.004 0.0165,-0.005 z m 157.5945196,0.28371 c 0.56085,0.016 0.49907,1.2938 0.42219,3.94084 l -0.1018,3.50263 -3.76411,0.0997 c -4.82676,0.12803 -4.82309,0.18347 -0.28887,-4.33669 2.12957,-2.12297 3.20573,-3.22154 3.73259,-3.20652 z M 20.6866,180.50061 c 0.32047,-0.32047 132.22647,-0.32047 132.54694,0 0.1348,0.1348 -0.74705,1.24621 -1.95957,2.46961 l -2.20451,2.22416 H 86.96007 24.85068 l -2.20451,-2.22416 c -1.21252,-1.2234 -2.09437,-2.33481 -1.95957,-2.46961 z" />
</svg>