<?xml version="1.0" encoding="UTF-8" standalone="no"?>
<!-- Created with Inkscape (http://www.inkscape.org/) -->

<svg
   width="175.55795mm"
   height="29.260229mm"
   viewBox="0 0 175.55795 29.260229"
   version="1.1"
   id="svg1"
   xml:space="preserve"
   xmlns="http://www.w3.org/2000/svg"
   xmlns:svg="http://www.w3.org/2000/svg"><defs
     id="defs1" /><path
     id="path6-8"
     style="font-variation-settings:normal;display:inline;vector-effect:none;fill:#000000;fill-opacity:1;stroke-width:1;stroke-linecap:butt;stroke-linejoin:miter;stroke-miterlimit:4;stroke-dasharray:none;stroke-dashoffset:0;stroke-opacity:1;-inkscape-stroke:none;stop-color:#000000"
     d="m 7.1937425,27.883057 v 0.5674 5.3573 l -3.175,2.96261 -3.17499995,2.96261 v 75.302373 75.3029 l 3.17499995,3.16001 3.175,3.16053 v 5.7397 5.74022 h 5.7753605 5.77536 l 3.01325,3.175 3.01377,3.175 h 63.032335 63.032332 l 3.01325,-3.175 3.01377,-3.175 h 5.77536 5.77484 v -5.74022 -5.7397 l 3.175,-3.16053 3.175,-3.16001 v -75.3029 -75.302373 l -3.175,-2.96261 -3.175,-2.96261 v -5.35678 -0.56792 h -1.41232 c 9.3e-4,0.17464 0.001,0.35897 0.001,0.55345 0,3.58619 -0.16759,3.70715 -2.23398,1.60921 l -1.64744,-1.67277 0.49713,-0.48989 H 11.954653 l 0.53227,0.54053 -1.69705,1.67173 c -2.0665005,2.03543 -2.1848805,1.9418 -2.1848805,-1.73477 0,-0.16665 6.5e-4,-0.32569 0.002,-0.47749 z m 6.6280205,1.39733 h 73.982055 73.982052 l 2.60811,2.52904 2.60811,2.52905 v 80.818833 80.81884 l -5.38365,5.3759 -5.38417,5.37538 H 87.795548 19.356313 l -5.37538,-5.38365 -5.3759005,-5.38417 V 115.14904 34.338477 l 2.6081105,-2.52905 z m -6.9220605,7.26725 c 0.022,-0.002 0.0386,0.003 0.0491,0.0134 0.1348,0.1348 0.24494,35.53137 0.24494,78.658753 0,43.12739 -0.13106,78.49456 -0.29145,78.59366 -0.16038,0.0991 -1.27129,-0.8089 -2.4691,-2.01745 l -2.17816,-2.19728 v -74.4368 -74.436793 l 2.22467,-2.20452 c 1.12781,-1.11779 2.15994,-1.9547 2.42,-1.97301 z m 161.7953075,0 c 0.23764,-0.01 1.28599,0.83627 2.43292,1.97301 l 2.22416,2.20452 v 74.456423 74.45644 l -2.22416,2.20452 c -1.22339,1.21252 -2.3348,2.09437 -2.46961,1.95957 -0.32047,-0.32047 -0.32047,-156.920563 0,-157.241043 0.008,-0.008 0.0208,-0.0128 0.0367,-0.0134 z M 8.9109525,198.82403 c 0.54716,-0.0582 7.8953105,7.34563 7.5845505,7.65638 -0.31501,0.31501 -7.3413205,0.32593 -7.6553505,0.0119 -0.34003,-0.34003 -0.28966,-7.45055 0.0543,-7.6631 0.005,-0.003 0.0101,-0.004 0.0165,-0.005 z m 157.5945275,0.28371 c 0.56085,0.016 0.49907,1.2938 0.42219,3.94084 l -0.1018,3.50263 -3.76411,0.0997 c -4.82676,0.12803 -4.82309,0.18347 -0.28887,-4.33669 2.12957,-2.12297 3.20573,-3.22154 3.73259,-3.20652 z m -144.975137,9.27592 c 0.32047,-0.32047 132.226477,-0.32047 132.546947,0 0.1348,0.1348 -0.74705,1.24621 -1.95957,2.46961 l -2.20451,2.22416 H 87.803818 25.694423 l -2.20451,-2.22416 c -1.21252,-1.2234 -2.09437,-2.33481 -1.95957,-2.46961 z" /><path
     style="fill:#e8e9ed;fill-opacity:1;stroke-width:1;-inkscape-stroke:none"
     d="M 1.0183055,14.676057 C 1.1319145,11.938407 14.16024,0.75341682 14.16024,0.75341682 l 147.35882,-0.13012 c 0,0 13.14193,12.49134018 13.14193,14.44311018 0,1.95177 -12.49134,13.40217 -12.49134,13.40217 l -148.66,0.19518 c 0,0 -12.57236845,-12.03525 -12.4913445,-13.9877 z"
     id="path3" /><path
     id="use6-9"
     style="font-variation-settings:normal;display:inline;vector-effect:none;fill:#aaa5b6;fill-opacity:1;stroke-width:1;stroke-linecap:butt;stroke-linejoin:miter;stroke-miterlimit:4;stroke-dasharray:none;stroke-dashoffset:0;stroke-opacity:1;-inkscape-stroke:none;stop-color:#000000"
     d="M 13.713763,-3.1822401e-6 6.9260625,6.7938968 c 0,0 -6.98567995,6.6992102 -6.92567995796,7.8527602 C 0.08178255,16.212487 3.6663125,19.579167 3.6663125,19.579167 l 3.52743,3.51452 v 5.35677 0.80977 h 1.41542 c -0.003,-0.27207 -0.004,-0.57157 -0.004,-0.89968 0,-3.58619 0.1681,-3.70716 2.2344905,-1.60921 l 1.64744,1.67225 -0.84956,0.83664 H 163.99465 l -0.87385,-0.88728 1.69705,-1.67173 c 2.0665,-2.03542 2.18437,-1.94127 2.18437,1.73529 0,0.29835 -8.2e-4,0.57262 -0.004,0.82372 h 1.41542 v -0.80925 -5.35678 l 3.70417,-3.69176 c 4.91952,-4.90277 5.16692,-3.95848 -3.25148,-12.4152702 L 161.91068,-3.18224e-6 H 87.812358 Z M 14.418633,1.4107668 H 87.803818 161.189 l 6.04098,6.08542 c 4.05728,4.0871502 6.11913,6.4233002 6.2792,7.1137802 0.30375,1.31027 -2.13733,3.42201 -2.13733,3.42201 -2.79433,2.8159 -2.95848,2.79426 -2.95848,-0.39636 v -2.43138 l -4.49792,-4.41833 -4.49791,-4.4183402 H 87.803818 16.189583 l -4.49792,4.4183402 -4.4979205,4.41833 v 2.43138 c 0,3.19966 -0.15996,3.21668 -3.02514,0.3266 -3.21870995,-3.24669 -3.36479995,-2.87235 4.01733,-10.2893002 z m 2.46341,6.35 h 70.921775 70.921252 l 3.51452,3.5279502 3.51451,3.52743 -3.33778,3.35174 -3.33778,3.35121 H 87.803818 16.528573 l -3.33778,-3.35121 -3.3372605,-3.35174 3.5140005,-3.52743 z M 9.1062925,16.677017 c 0.492,0.0118 1.4670405,0.9815 3.3977205,2.92024 l 3.31918,3.33313 h 71.980625 71.980622 l 3.31918,-3.33313 c 3.86337,-3.87949 3.89847,-3.88041 3.89847,-0.0775 v 2.89802 l -2.74144,2.72593 -2.74195,2.72541 H 87.787798 14.056373 l -2.72541,-2.74195 -2.7259305,-2.74143 v -2.882 c 0,-1.89248 0.009,-2.83848 0.50126,-2.8267 z" /></svg>
