<?xml version="1.0" encoding="UTF-8" standalone="no"?>
<!-- Created with Inkscape (http://www.inkscape.org/) -->

<svg
   width="384.5788mm"
   height="29.260229mm"
   viewBox="0 0 384.5788 29.260229"
   version="1.1"
   id="svg1"
   xml:space="preserve"
   xmlns="http://www.w3.org/2000/svg"
   xmlns:svg="http://www.w3.org/2000/svg"><defs
     id="defs1" /><path
     style="display:none;fill:#000000"
     d="m 232.70378,28.204844 c -1.95521,-1.0087 -4.21057,-2.37102 -5.01191,-3.02738 -1.44189,-1.18101 -1.45142,-1.20416 -0.91915,-2.23345 0.29581,-0.57204 0.72555,-0.96826 0.95497,-0.88049 0.22942,0.0878 2.00462,0.56962 3.9449,1.07078 4.08904,1.05617 6.45008,1.85209 7.10401,2.3948 0.37816,0.31385 0.35774,0.58542 -0.1124,1.49459 -0.70411,1.36162 -1.93837,3.05776 -2.20726,3.03323 -0.10903,-0.01 -1.79795,-0.84338 -3.75316,-1.85208 z m -5.55125,-15.50414 c -0.089,-1.02125 0.26169,-1.91358 0.32584,-1.98875 0.0642,-0.0752 3.83537,-0.8825498 8.38048,-1.7941698 l 8.26384,-1.65749 0.20926,1.265 c 0.29695,1.7950198 0.26663,4.9678498 -0.0476,4.9761698 -0.14552,0.004 -2.40771,0.23883 -5.02708,0.52216 -2.61938,0.28333 -5.62649,0.27857 -8.44065,0.22938 -1.18479,-0.0207 -3.54804,-0.2207 -3.54804,-0.2207 z M 224.47796,1.5348642 c -0.60261,-0.56291996 -0.91163,-0.99506996 -0.91163,-1.18522996 0,-0.19017 0.59216,-0.77828 1.10076,-1.31784 0.54469,-0.57785004 1.97894,-2.09471004 3.3328,-3.29533004 1.43556,-1.27307 3.73343,-3.06947 4.33679,-3.38686 l 2.01226,-1.05851 2.26823,1.11851 c 2.19947,1.08461 2.2498,1.1394 1.66043,1.80767 -1.505,1.7065 -11.32778,8.34107 -12.34933,8.34107 -0.19507,0 -0.84771,-0.46057 -1.45031,-1.02348 z"
     id="path2" /><path
     style="display:none;fill:#000000"
     d="m 207.51721,28.662275 c -0.90102,-0.68799 -1.63823,-1.31529 -1.63823,-1.39402 0,-0.34536 5.37785,-3.57599 8.19298,-4.92175 l 3.08788,-1.47617 0.90989,0.94972 0.90988,0.94972 -2.2482,1.98607 c -2.12495,1.8772 -6.78452,5.15731 -7.32622,5.15731 -0.13736,0 -0.98695,-0.5629 -1.88798,-1.25088 z m -1.28545,-15.32967 -5.46805,-0.17639 -0.10358,-2.1489 c -0.0742,-1.5386598 0.0403,-2.2683298 0.40318,-2.5694698 0.64183,-0.53267 10.63149,0.43064 13.8022,1.33096 1.98344,0.5631898 2.12579,0.6763198 2.42084,1.9239098 0.17241,0.72904 0.25597,1.37493 0.18569,1.4353 -0.30288,0.2602 -6.19293,0.36741 -11.24028,0.20459 z M 216.75895,1.5982352 c -4.98594,-3.353849 -10.17441,-7.656259 -10.17441,-7.957709 0,-0.46303 4.15378,-3.23906 4.83346,-3.23027 0.70234,0.009 2.92625,2.40605 6.70219,7.22374 2.89695,3.696179 3.18701,4.373399 2.31905,5.414379 l -0.64854,0.58921 z"
     id="path1" /><path
     style="display:inline;fill:#e8e9ed;fill-opacity:1;stroke-width:1;-inkscape-stroke:none"
     d="M 1.0183092,14.676059 C 1.1319182,11.938409 14.160243,0.75341924 14.160243,0.75341924 l 356.908817,-0.13012 c 0,0 13.14193,12.49133976 13.14193,14.44310976 0,1.95177 -12.49134,13.40217 -12.49134,13.40217 l -358.209997,0.19518 c 0,0 -12.5723678,-12.03525 -12.4913438,-13.9877 z"
     id="path3" /><path
     id="use6-9"
     style="font-variation-settings:normal;display:inline;vector-effect:none;fill:#aaa5b6;fill-opacity:1;stroke-width:1;stroke-linecap:butt;stroke-linejoin:miter;stroke-miterlimit:4;stroke-dasharray:none;stroke-dashoffset:0;stroke-opacity:1;-inkscape-stroke:none;stop-color:#000000"
     d="M 13.713766,-7.6078794e-7 6.9260662,6.7938992 c 0,0 -6.98568,6.6992098 -6.92568000195,7.8527598 C 0.0817862,16.212489 3.6663162,19.579169 3.6663162,19.579169 l 3.52743,3.51452 v 5.35677 0.80977 h 1.41542 c -0.003,-0.27207 -0.004,-0.57157 -0.004,-0.89968 0,-3.58619 0.1681,-3.70716 2.2344898,-1.60921 l 1.64744,1.67225 -0.84956,0.83664 H 373.01548 l -0.87385,-0.88728 1.69705,-1.67173 c 2.0665,-2.03542 2.18437,-1.94127 2.18437,1.73529 0,0.29835 -8.2e-4,0.57262 -0.004,0.82372 h 1.41542 v -0.80925 -5.35678 l 3.70417,-3.69176 c 4.91952,-4.90277 5.16692,-3.95848 -3.25148,-12.4152698 L 370.93151,-7.6078794e-7 H 189.94153 Z M 14.418636,1.4107692 H 189.93299 370.20983 l 6.04098,6.08542 c 4.05729,4.0871378 6.11913,6.4232998 6.2792,7.1137798 0.30375,1.31027 -2.13733,3.42201 -2.13733,3.42201 -2.79433,2.8159 -2.95848,2.79426 -2.95848,-0.39636 v -2.43138 l -4.49792,-4.41833 -4.49791,-4.4183398 H 189.93299 16.189586 l -4.49792,4.4183398 -4.4979198,4.41833 v 2.43138 c 0,3.19966 -0.15996,3.21668 -3.02514,0.3266 -3.21871,-3.24669 -3.3648,-2.87235 4.01733,-10.2892998 z m 2.46341,6.35 H 189.93299 367.7459 l 3.51452,3.5279498 3.51451,3.52743 -3.33778,3.35174 -3.33778,3.35121 H 189.93299 16.528576 l -3.33778,-3.35121 -3.3372598,-3.35174 3.5139998,-3.52743 z M 9.1062962,16.677019 c 0.492,0.0118 1.4670398,0.9815 3.3977198,2.92024 l 3.31918,3.33313 H 189.93299 368.80527 l 3.31918,-3.33313 c 3.86337,-3.87949 3.89847,-3.88041 3.89847,-0.0775 v 2.89802 l -2.74144,2.72593 -2.74195,2.72541 H 189.91697 14.056376 l -2.72541,-2.74195 -2.7259298,-2.74143 v -2.882 c 0,-1.89248 0.009,-2.83848 0.50126,-2.8267 z" /><path
     id="path7"
     style="font-variation-settings:normal;display:inline;vector-effect:none;fill:#aaa5b6;fill-opacity:1;stroke-width:1;stroke-linecap:butt;stroke-linejoin:miter;stroke-miterlimit:4;stroke-dasharray:none;stroke-dashoffset:0;stroke-opacity:1;-inkscape-stroke:none;stop-color:#000000"
     d="m 7.1937462,27.883059 v 0.5674 5.3573 l -3.175,2.96261 -3.175,2.96261 v 54.13572 76.361231 l 3.175,3.16001 3.175,3.16053 v 5.7397 5.74022 h 5.7753598 5.77536 l 3.01325,3.175 3.01377,3.175 H 188.34549 359.85698 l 3.01325,-3.175 3.01377,-3.175 h 5.77536 5.77484 v -5.74022 -5.7397 l 3.175,-3.16053 3.175,-3.16001 V 93.868699 39.732979 l -3.175,-2.96261 -3.175,-2.96261 v -5.35678 -0.56792 h -1.41232 c 9.3e-4,0.17464 10e-4,0.35897 10e-4,0.55345 0,3.58619 -0.16759,3.70715 -2.23398,1.60921 l -1.64744,-1.67277 0.49713,-0.48989 H 11.954656 l 0.53227,0.54053 -1.69705,1.67173 c -2.0664998,2.03543 -2.1848798,1.9418 -2.1848798,-1.73477 0,-0.16665 6.5e-4,-0.32569 0.002,-0.47749 z m 6.6280198,1.39733 H 188.34549 370.8067 l 2.60811,2.52904 2.60811,2.52905 v 59.65218 81.877171 l -5.38365,5.3759 -5.38417,5.37538 H 188.33722 19.356316 l -5.37538,-5.38365 -5.3758998,-5.38417 V 93.982389 34.338479 l 2.6081098,-2.52905 z m -6.9220598,7.26725 c 0.022,-0.002 0.0386,0.003 0.0491,0.0134 0.1348,0.1348 0.24494,14.364707 0.24494,57.4921 0,43.127391 -0.13106,79.552891 -0.29145,79.651991 -0.16038,0.0991 -1.27129,-0.8089 -2.4691,-2.01745 l -2.17816,-2.19728 V 93.995269 40.725129 l 2.22467,-2.20452 c 1.12781,-1.11779 2.15994,-1.9547 2.42,-1.97301 z m 370.8161338,0 c -0.0577,-0.230749 1.28599,0.83627 2.43292,1.97301 l 2.22416,2.20452 v 53.28977 75.514771 l -2.22416,2.20452 c -1.22339,1.21252 -2.3348,2.09437 -2.46961,1.95957 -0.32047,-0.32047 -0.32047,-136.812241 0,-137.132721 0.008,-0.008 0.0406,0.002 0.0367,-0.0134 z M 8.9109562,178.71571 c 0.54716,-0.0582 7.8953098,7.34563 7.5845498,7.65638 -0.31501,0.31501 -7.3413198,0.32593 -7.6553498,0.0119 -0.34003,-0.34003 -0.28966,-7.45055 0.0543,-7.6631 0.005,-0.003 0.0101,-0.004 0.0165,-0.005 z m 366.6153538,0.28371 c 0,0.56108 0.49913,1.2938 0.42219,3.94084 l -0.1018,3.50263 -3.76411,0.0997 c -4.82676,0.12803 -4.82309,0.18347 -0.28887,-4.33669 2.12957,-2.12297 3.73259,-3.73359 3.73259,-3.20652 z m -353.995964,9.27592 c 0.32047,-0.32047 341.247304,-0.32047 341.567774,0 0.1348,0.1348 -0.74705,1.24621 -1.95957,2.46961 l -2.20451,2.22416 H 188.34549 25.694426 l -2.20451,-2.22416 c -1.21252,-1.2234 -2.09437,-2.33481 -1.95957,-2.46961 z" /></svg>
