<?xml version="1.0" encoding="UTF-8" standalone="no"?>
<!-- Created with Inkscape (http://www.inkscape.org/) -->

<svg
   width="696.20721mm"
   height="356.99734mm"
   viewBox="0 0 696.20721 356.99734"
   version="1.1"
   id="svg1"
   xml:space="preserve"
   xmlns="http://www.w3.org/2000/svg"
   xmlns:svg="http://www.w3.org/2000/svg"><defs
     id="defs1" /><path
     id="path10"
     style="font-variation-settings:normal;display:inline;vector-effect:none;fill:#aaa5b6;fill-opacity:1;stroke-width:1;stroke-linecap:butt;stroke-linejoin:miter;stroke-miterlimit:4;stroke-dasharray:none;stroke-dashoffset:0;stroke-opacity:1;-inkscape-stroke:none;stop-color:#000000"
     d="m 689.85713,356.99733 v -0.5674 -5.3573 l 3.175,-2.96261 3.175,-2.96261 V 175.65336 24.150459 l -3.175,-3.16001 -3.175,-3.16053 v -5.7397 -5.7402204 h -5.77536 -5.77536 l -3.01325,-3.175 L 672.27939,-1.4127061e-6 H 328.78871 23.927222 L 20.913972,3.1749986 l -3.013773,3.175 h -5.77536 -5.7748402 v 5.7402204 5.7397 l -3.175,3.16053 -3.1749999896687,3.16001 V 175.65336 345.14741 L 3.1749988,348.11002 l 3.175,2.96261 v 5.35678 0.56792 h 1.41232 c -9.3e-4,-0.17464 -0.001,-0.35897 -0.001,-0.55345 0,-3.58619 0.16759,-3.70715 2.23398,-1.60921 l 1.6474402,1.67277 -0.49713,0.48989 H 685.09622 l -0.53227,-0.54053 1.69705,-1.67173 c 2.0665,-2.03543 2.18488,-1.9418 2.18488,1.73477 0,0.16665 -6.5e-4,0.32569 -0.002,0.47749 z M 683.22911,355.6 H 328.78871 12.977499 l -2.60811,-2.52904 -2.6081102,-2.52905 V 175.5314 18.512559 l 5.3836502,-5.3759 5.38417,-5.3753804 H 328.79698 677.69456 l 5.37538,5.3836504 5.3759,5.38417 V 175.53967 350.54191 l -2.60811,2.52905 z m 6.92206,-7.26725 c -0.022,0.002 -0.0386,-0.003 -0.0491,-0.0134 -0.1348,-0.1348 -0.24494,-129.72304 -0.24494,-172.85043 0,-43.12739 0.13106,-154.694561 0.29145,-154.793661 0.16038,-0.0991 1.27129,0.8089 2.4691,2.01745 l 2.17816,2.19728 V 175.52679 344.15526 l -2.22467,2.20452 c -1.12781,1.11779 -2.15994,1.9547 -2.42,1.97301 z m -684.0828112,0 c 0.0577,0.23075 -1.28599,-0.83627 -2.43292,-1.97301 l -2.22416,-2.20452 V 175.50712 24.850679 l 2.22416,-2.20452 c 1.22339,-1.21252 2.3348,-2.09437 2.46961,-1.95957 0.32047,0.32047 0.32047,327.312241 0,327.632721 -0.008,0.008 -0.0405,-0.002 -0.0367,0.0134 z M 688.13992,15.664679 c -0.54716,0.0582 -7.89531,-7.3456304 -7.58455,-7.6563804 0.31501,-0.31501 7.34132,-0.32593 7.65535,-0.0119 0.34003,0.34003 0.28966,7.4505504 -0.0543,7.6631004 -0.005,0.003 -0.0101,0.004 -0.0165,0.005 z M 8.2578888,15.380969 c 0,-0.56108 -0.49912,-1.2938 -0.42219,-3.94084 l 0.1018,-3.5026304 3.7641102,-0.0997 c 4.82676,-0.12803 4.82309,-0.18347 0.28887,4.3366904 -2.1295702,2.12297 -3.7325902,3.73359 -3.7325902,3.20652 z M 675.52053,6.1050486 c -0.32047,0.32047 -654.513978,0.32047 -654.834448,0 -0.1348,-0.1348 0.74705,-1.24621 1.95957,-2.46961 l 2.20451,-2.22416 H 328.78871 671.35645 l 2.20451,2.22416 c 1.21252,1.2234 2.09437,2.33481 1.95957,2.46961 z" /></svg>
