<svg xmlns="http://www.w3.org/2000/svg" width="123mm" height="50mm" fill="currentColor" class="parentheses-left" viewBox="0 0 123 50">

  <path
     style="display:inline;fill:#e8e9ed;fill-opacity:1;stroke-width:1;-inkscape-stroke:none"
     d="m 1.0369058,35.842854 c 0.113609,-2.73765 0.177351,-20.9341 0.177351,-20.9341 L 14.105348,0.65773409 l 95.260422,-0.1064 13.01355,14.49188991 c 0,0 0.44193,19.23821 0.44193,21.18998 0,1.95177 -12.49134,13.40217 -12.49134,13.40217 l -96.80166,0.19518 c 0,0 -12.57236814,-12.03525 -12.4913442,-13.9877 z"
     id="path3"
  />
  <path
     id="use6-9"
     style="font-variation-settings:normal;display:inline;vector-effect:none;fill:#aaa5b6;fill-opacity:1;stroke-width:1;stroke-linecap:butt;stroke-linejoin:miter;stroke-miterlimit:4;stroke-dasharray:none;stroke-dashoffset:0;stroke-opacity:1;-inkscape-stroke:none;stop-color:#000000"
     d="M 13.73235,-5.9120779e-6 6.9446498,6.7938941 c 0,0 -6.98567494,6.6991999 -6.92567494,7.8527499 5.72e-4,0.0109 -0.043,21.12824 0,21.58722 0.02987,0.3188 3.66592294,4.51238 3.66592294,4.51238 l 3.527433,3.51452 v 6.16655 h 1.415418 c -0.05176,-4.69398 0.180373,-4.59022 2.2303892,-2.50889 l 1.647445,1.67224 0.91984,0.82011 96.414257,0.0165 0.91209,-0.88729 1.69706,-1.67173 c 2.6642,-3.07553 2.16718,-0.5705 2.18036,2.55902 h 1.41542 v -6.16604 l 3.70417,-3.69176 c 2.30259,-2.29475 3.58167,-3.3085 3.4277,-4.60489 l 5.1e-4,-21.15788 c -0.16805,-1.47484 -2.19274,-3.31174 -6.67969,-7.8191599 L 109.54165,3.7408792e-4 Z M 14.437216,1.4107641 h 94.382864 l 6.04097,6.08541 c 2.53086,2.5494799 6.58068,6.5745499 6.62328,7.3569199 0,0 0.13266,19.75615 -0.0468,21.1345 -0.13142,1.00938 -2.43466,3.21104 -2.43466,3.21104 -2.79433,2.8159 -3.13075,2.78961 -2.95848,-0.39636 0,0 -0.10645,-1.85421 -0.14031,-2.78216 -0.25795,-7.06836 -0.23777,-20.77077 -0.47877,-21.21379 -0.32467,-0.59683 -3.87883,-4.02043 -3.87883,-4.02043 L 107.04856,6.3675641 H 16.208167 l -4.497916,4.4183299 c 0,0 -3.6814332,3.09478 -4.0447152,3.97341 -0.28923,0.69953 -0.06779,21.11281 -0.205161,21.24778 l -0.04961,2.99361 c -0.05302,3.19922 -0.358395,3.01824 -3.223575,0.12816 -1.420982,-1.43334 -2.402884,-2.90288 -2.541847,-3.18806 -0.141986,-0.29139 0.04323,-20.83439 0.163703,-21.13449 0.09937,-0.24754 2.262972,-2.98141 6.395476,-7.1334099 z m 2.463416,6.35 h 89.455518 l 3.51451,3.5279499 c 0,0 3.54466,3.34056 3.73856,3.7047 0.18651,0.35025 0.20169,20.92402 0.20169,20.92402 l -3.76353,3.4171 -3.33778,3.35122 H 16.547165 l -3.337781,-3.35122 c 0,0 -3.5438642,-3.28811 -3.7672122,-3.51709 -0.201572,-0.20666 -0.0067,-21.01112 -0.0067,-21.01112 l 3.9506632,-3.51761 z M 9.1248788,37.843674 c 0.492,0.0118 1.4670452,0.9815 3.3977252,2.92024 l 3.319177,3.33313 h 91.573729 l 3.31918,-3.33313 c 3.86337,-3.87949 3.89847,-3.88042 3.89847,-0.0775 v 2.89801 l -2.74143,2.72593 -2.74195,2.72542 H 14.074964 l -2.725415,-2.74196 -2.7259322,-2.74143 0.09922,-2.78277 c 0.06743,-1.89128 -0.09022,-2.93771 0.402043,-2.92593 z"
  />
</svg>