<svg xmlns="http://www.w3.org/2000/svg" width="175" height="29" fill="currentColor" class="parentheses-left" viewBox="0 0 175 29">
  <path 
    d="M 13.713761,-8.9478387e-6 6.9260612,6.793891 c 0,0 -6.98567995,6.69921 -6.92567995403,7.85276 C 0.08178125,16.212481 3.6663112,19.579161 3.6663112,19.579161 l 3.52743,3.51452 v 5.35677 0.80977 h 1.41542 c -0.003,-0.27207 -0.004,-0.57157 -0.004,-0.89968 0,-3.58619 0.1681,-3.70716 2.2344898,-1.60921 l 1.64744,1.67225 -0.84956,0.83664 H 163.99464 l -0.87385,-0.88728 1.69705,-1.67173 c 2.0665,-2.03542 2.18437,-1.94127 2.18437,1.73529 0,0.29835 -8.2e-4,0.57262 -0.004,0.82372 h 1.41542 v -0.80925 -5.35678 l 3.70417,-3.69176 c 4.91952,-4.90277 5.16692,-3.95848 -3.25148,-12.41527 L 161.91067,-8.9478386e-6 H 87.812351 Z M 14.418631,1.410761 h 73.38518 73.385179 l 6.04098,6.08542 c 4.05728,4.08715 6.11913,6.4233 6.2792,7.11378 0.30375,1.31027 -2.13733,3.42201 -2.13733,3.42201 -2.79433,2.8159 -2.95848,2.79426 -2.95848,-0.39636 v -2.43138 l -4.49792,-4.41833 -4.49791,-4.41834 H 87.803811 16.189581 l -4.49792,4.41834 -4.4979198,4.41833 v 2.43138 c 0,3.19966 -0.15996,3.21668 -3.02514,0.3266 -3.21870995,-3.24669 -3.36479995,-2.87235 4.01733,-10.2893 z m 2.46341,6.35 h 70.92177 70.921249 l 3.51452,3.52795 3.51451,3.52743 -3.33778,3.35174 -3.33778,3.35121 H 87.803811 16.528571 l -3.33778,-3.35121 -3.3372598,-3.35174 3.5139998,-3.52743 z m -7.7757498,8.91625 c 0.492,0.0118 1.4670398,0.9815 3.3977198,2.92024 l 3.31918,3.33313 h 71.98062 71.980619 l 3.31918,-3.33313 c 3.86337,-3.87949 3.89847,-3.88041 3.89847,-0.0775 v 2.89802 l -2.74144,2.72593 -2.74195,2.72541 H 87.787791 14.056371 l -2.72541,-2.74195 -2.7259298,-2.74143 v -2.882 c 0,-1.89248 0.009,-2.83848 0.50126,-2.8267 z" />
</svg>