<svg xmlns="http://www.w3.org/2000/svg" width="123mm" height="90mm" fill="currentColor" class="parentheses-left" viewBox="-.5 0 123  90">
  <path
d="M 6.3499996,-5.2959664e-6 V 5.9246947 l -3.175,2.96261 L -4.3039862e-7,11.849915 v 53.23862 L 3.1749996,68.248545 l 3.175,3.16053 v 5.7397 5.74022 h 5.7753604 5.77536 l 3.01325,3.175 3.013773,3.175 h 73.67716 l 3.013247,-3.175 3.01377,-3.175 h 5.77536 5.77484 v -5.74022 -5.7397 l 3.175,-3.16053 3.175,-3.16001 v -53.23862 l -3.175,-2.9626103 -3.175,-2.96261 V -5.2959664e-6 H 113.7698 C 113.7923,4.2236947 113.61642,4.2740047 111.53682,2.1626547 L 109.88938,0.4898847 109.47445,-5.2959664e-6 12.116512,0.0233947 l -0.473332,0.51714 -1.6970504,1.67173 c -1.98054,1.95076 -2.221579,2.13922 -2.18288,-2.2122599959664 z M 12.97802,1.3973247 h 95.5766 l 2.60811,2.52904 2.60811,2.52905 V 70.726435 l -5.38365,5.3759 -5.38417,5.37538 H 18.51257 l -5.37538,-5.38365 -5.3759004,-5.38417 V 6.4554147 L 10.3694,3.9263647 Z m -6.9220604,7.26725 c 0.022,-0.002 0.0386,0.003 0.0491,0.0134 0.39684,0.39684 0.268218,59.6913003 -0.04651,59.8857603 -0.16038,0.0991 -1.27129,-0.8089 -2.4691,-2.01745 l -2.17816,-2.19728 v -51.50694 l 2.22467,-2.20452 c 1.12781,-1.1177903 2.15994,-1.9547003 2.42,-1.9730103 z m 109.4078004,0 c -0.0577,-0.23075 1.28599,0.83627 2.43292,1.9730103 l 2.22416,2.20452 v 51.54621 l -2.22416,2.20452 c -1.22339,1.21252 -2.3348,2.09437 -2.46961,1.95957 -0.32047,-0.32047 -0.32047,-59.5539103 0,-59.8743903 0.008,-0.008 0.0405,0.002 0.0367,-0.0134 z M 8.0672096,73.574315 c 0.54716,-0.0582 7.8953104,7.34563 7.5845504,7.65638 -0.31501,0.31501 -7.3413204,0.32593 -7.6553504,0.0119 -0.34003,-0.34003 -0.28966,-7.45055 0.0543,-7.6631 0.005,-0.003 0.0101,-0.004 0.0165,-0.005 z m 105.2070204,0.28371 c 0,0.56108 0.49912,1.2938 0.42219,3.94084 l -0.1018,3.50263 -3.76411,0.0997 c -4.82676,0.12803 -4.82309,0.18347 -0.28887,-4.33669 2.12957,-2.12297 3.73259,-3.73359 3.73259,-3.20652 z m -92.58763,9.27592 c 0.32047,-0.32047 79.83897,-0.32047 80.15944,0 0.1348,0.1348 -0.74705,1.24621 -1.959567,2.46961 l -2.20451,2.22416 h -71.83128 l -2.20451,-2.22416 C 21.43365,84.380155 20.5518,83.268745 20.6866,83.133945 Z"
  />
</svg>
