<svg xmlns="http://www.w3.org/2000/svg" width="512" height="36" fill="currentColor" class="parentheses-left" viewBox="0 0 512 36">
  <path
     d="m 255.65417,35.997275 c 0.95402,0.0272 1.91898,-0.011 2.50941,-0.17725 4.12153,-1.16026 8.04746,-2.44334 12.00495,-6.273 l 1.08366,-1.04852 17.07751,0.0667 c 10.90258,0.0425 17.62902,0.0207 18.60196,-0.0605 1.79642,-0.14993 2.66906,-0.42694 3.76153,-1.1927 1.07519,-0.75364 1.90442,-1.81267 2.73317,-3.49126 l 0.69918,-1.41645 2.7528,-0.0594 c 2.16515,-0.0466 3.01055,-0.11607 3.95945,-0.32607 1.42334,-0.315 2.76225,-0.94305 3.61942,-1.69757 0.6997,-0.6159 1.52014,-1.81368 1.73633,-2.53525 l 0.14521,-0.48576 92.51063,-0.032 92.51063,-0.032 c 0.33397,-0.0669 0.70817,-0.49845 0.71417,-0.93224 0.006,-0.45506 -0.37211,-0.91275 -0.71417,-0.97255 l -108.43731,-0.0636 -108.43731,-0.0636 -0.69039,-0.29352 c -0.37985,-0.16133 -3.5899,-2.03266 -7.1329,-4.15892 -5.77407,-3.4652102 -6.49814,-3.8659102 -6.98562,-3.8659102 -0.48749,0 -0.79808,0.17164 -2.99672,1.6583 -1.34905,0.9122 -2.72313,1.7785502 -3.05407,1.9249402 -2.01433,0.89103 -3.96688,0.80016 -6.22133,-0.28938 -1.84418,-0.8912602 -3.26897,-2.1037302 -7.2223,-6.1458802 l -3.66954,-3.75223 c -0.38362,-0.38976 -0.76721,-0.36105 -1.14308,0 l -3.66955,3.75223 c -3.95334,4.04215 -5.37813,5.25462 -7.2223,6.1458802 -2.25446,1.08954 -4.20699,1.18041 -6.22132,0.28938 -0.33093,-0.14639 -1.70554,-1.0127402 -3.0546,-1.9249402 -2.07351,-1.40204 -2.52708,-1.6583 -2.93315,-1.6583 -0.4042,0 -1.50146,0.61284 -6.92206,3.8659102 -3.543,2.12626 -6.75252,3.99759 -7.13238,4.15892 l -0.6904,0.29352 -108.43731,0.0636 -108.43729613,0.0636 c -0.16655,0.008 -0.65206,0.50707 -0.649060002512,0.99477 C 0.00201387,16.780345 0.48014387,17.225645 0.64907387,17.236245 l 92.51011013,0.032 92.510626,0.032 0.14573,0.48576 c 0.0801,0.26716 0.36566,0.8262 0.63459,1.2423 1.52074,2.35287 4.26516,3.35122 9.21132,3.35122 h 2.22416 l 0.5674,1.19786 c 0.69781,1.4731 1.17528,2.17715 2.07946,3.06699 0.79707,0.78445 2.16332,1.51258 3.19722,1.70429 0.43504,0.0806 7.2718,0.12713 18.78025,0.12713 h 18.09657 l 1.09503,1.05936 c 3.77759,3.65599 7.47877,5.54726 11.50885,6.24768 0.54649,0.095 1.48976,0.18728 2.44378,0.21446 z m 0.19792,-3.72639 c -1.55246,0.008 -3.07537,-0.16181 -3.8964,-0.5333 -3.42737,-1.55075 -7.11962,-3.76904 -10.25002,-7.72149 l -0.36845,-0.46509 0.82682,-0.15554 0.82682,-0.15607 0.26872,0.36381 c 0.57911,0.7845 3.29592,3.32734 4.37131,4.09122 1.51046,1.07293 3.39699,1.97855 4.9475,2.37556 1.10757,0.28362 1.5308,0.32453 3.36259,0.32453 1.82926,0 2.25704,-0.0409 3.36568,-0.32349 1.58232,-0.4034 3.6813,-1.43348 5.15576,-2.53008 1.23056,-0.91522 3.41224,-2.96628 3.98787,-3.74861 0.41236,-0.56045 0.52544,-0.58661 1.49758,-0.35243 l 0.60824,0.14624 -0.97462,1.14308 c -3.21057,3.76496 -6.26262,5.78202 -9.65574,7.00836 -0.93921,0.33945 -2.52119,0.52529 -4.07366,0.5333 z m 0.0889,-3.79511 c -1.9455,0 -2.97931,-0.21123 -2.10582,-0.43047 0.16906,-0.0424 0.6913,-0.33465 1.16014,-0.64905 0.46884,-0.31439 0.91615,-0.56828 0.99425,-0.56328 0.0781,0.005 0.39882,0.20373 0.71314,0.44184 0.31433,0.23811 0.81443,0.53443 1.11104,0.65835 0.2966,0.12392 0.53923,0.25993 0.5395,0.30283 7.9e-4,0.12973 -1.10473,0.23978 -2.41225,0.23978 z m 5.53403,-1.45263 c -0.20478,6.6e-4 -0.49295,-0.0773 -1.10071,-0.25166 -1.26984,-0.36425 -2.3837,-0.8927 -3.01325,-1.42937 -0.3927,-0.33475 -0.41836,-0.40457 -0.38086,-1.03301 l 0.0403,-0.67438 0.69866,0.524 c 1.04815,0.78613 2.06705,1.37996 3.39876,1.97972 l 1.1989,0.5395 -0.40515,0.20929 c -0.16882,0.0873 -0.27739,0.1354 -0.43666,0.13591 z m -11.06806,0 c -0.15939,-4.8e-4 -0.26835,-0.0486 -0.43718,-0.13591 l -0.40463,-0.20929 1.20974,-0.54467 c 1.31435,-0.59194 2.20978,-1.10672 3.19774,-1.83864 0.9991,-0.74011 0.9524,-0.74169 0.9524,0.0356 0,0.65214 -0.0298,0.71844 -0.47646,1.07022 -0.70905,0.55843 -1.66953,1.00621 -2.93935,1.37046 -0.60855,0.17456 -0.89734,0.2528 -1.10226,0.25218 z m -27.42108,-0.45268 h -15.8104 l -0.84439,-0.33797 c -1.07364,-0.42981 -1.93326,-1.28273 -2.74867,-2.72645 l -0.60048,-1.0635 9.80508,-0.032 c 9.59962,-0.0318 9.82147,-0.0275 10.55801,0.22738 1.5842,0.54864 3.52128,0.54859 5.09943,-5.2e-4 0.76165,-0.26501 2.39655,-1.1672 2.54197,-1.4025 v -5.1e-4 c 0.11248,-0.18203 0.469,-0.14627 0.76119,0.0765 0.67817,0.51701 2.21825,1.24851 3.54707,1.68465 1.45594,0.47786 1.47802,0.49121 1.8681,1.10846 0.21716,0.34363 0.67342,0.97608 1.0139,1.40508 0.34048,0.42901 0.61908,0.84296 0.61908,0.92036 0,0.10224 -4.32529,0.14108 -15.80989,0.14108 z m 66.13395,-0.0982 c -10.29916,0.0405 -16.03365,0.0191 -16.03365,-0.0599 0,-0.0677 0.27809,-0.4743 0.61857,-0.90331 0.34048,-0.429 0.79673,-1.06093 1.01389,-1.40456 0.38998,-0.61709 0.41308,-0.63072 1.86552,-1.10743 0.8088,-0.26546 2.04681,-0.79866 2.75125,-1.18494 0.70444,-0.38627 1.28753,-0.70228 1.29553,-0.70228 0.008,0 0.32147,0.20609 0.69608,0.45837 2.3055,1.55262 4.77608,1.94331 7.18303,1.13533 l 0.96893,-0.32556 9.71052,0.0325 9.71052,0.0326 -0.59376,1.0511 c -0.7459,1.32065 -1.61678,2.23956 -2.48512,2.62154 l -0.66766,0.29353 z m -24.96282,-1.34359 c -0.17284,-0.002 -0.42321,-0.086 -0.94723,-0.27181 -2.03258,-0.72082 -4.14087,-1.97072 -5.60482,-3.32228 -0.64172,-0.59248 -0.6655,-0.63737 -0.6258,-1.20355 l 0.0413,-0.58859 0.69866,0.63304 c 1.10424,0.99997 3.47535,2.50286 5.36608,3.40134 0.95542,0.45403 1.7395,0.86697 1.7415,0.91777 0.002,0.0508 -0.13959,0.1862 -0.31523,0.30128 -0.13248,0.0868 -0.22007,0.13455 -0.3545,0.1328 z m -16.43259,0 c -0.13443,0.002 -0.22149,-0.046 -0.35398,-0.1328 -0.17563,-0.11508 -0.31723,-0.25048 -0.31523,-0.30128 0.002,-0.0508 0.78607,-0.46374 1.7415,-0.91777 0.95542,-0.45402 2.3965,-1.2631 3.20239,-1.79782 0.80589,-0.53472 1.79409,-1.2679 2.19573,-1.62936 l 0.73019,-0.65733 v 0.63356 c 0,0.6031 -0.0318,0.66229 -0.66663,1.23455 -1.52061,1.37065 -3.57705,2.58392 -5.58622,3.29644 -0.52401,0.18583 -0.77491,0.26957 -0.94775,0.27181 z m 18.68362,-2.08824 c -0.17672,0.0106 -0.4824,-0.11796 -1.28003,-0.45734 -2.86086,-1.21726 -4.95759,-2.57568 -6.80578,-4.40903 -1.29465,-1.28427 -1.36529,-1.38126 -1.36529,-1.87637 0,-0.2737 0.0131,-0.49741 0.0294,-0.51522 l 5.2e-4,-5.1e-4 v -5.2e-4 h 5.1e-4 5.2e-4 5.2e-4 c 0.0175,0.003 0.43192,0.38134 0.92087,0.84129 2.15879,2.03077 5.06741,4.07705 7.40885,5.21209 0.8146,0.39489 1.50689,0.73803 1.53789,0.76223 0.031,0.0241 -0.0549,0.15422 -0.19068,0.28938 -0.0916,0.0911 -0.15132,0.14761 -0.25735,0.154 z m -20.93412,0 c -0.10603,-0.006 -0.16576,-0.0629 -0.25735,-0.154 -0.1358,-0.13516 -0.22169,-0.26528 -0.19069,-0.28938 0.031,-0.0242 0.72329,-0.36734 1.53789,-0.76223 1.54423,-0.74858 3.85409,-2.23158 5.37642,-3.45147 0.48895,-0.39181 1.36057,-1.14273 1.93683,-1.66863 l 1.048,-0.95602 v 0.53072 c 0,0.50595 -0.0636,0.59335 -1.36529,1.88464 -1.84819,1.83335 -3.94492,3.19177 -6.80579,4.40903 -0.79762,0.33938 -1.10331,0.46799 -1.28002,0.45734 z m 27.18542,-1.29553 c -2.01876,0 -4.40497,-0.6341 -6.67453,-1.77302 -2.47853,-1.24378 -4.45587,-2.6842 -7.5675,-5.51387 l -0.76171,-0.69298 0.4377,-0.45527 c 0.24072,-0.25034 0.49968,-0.45527 0.57568,-0.45527 0.076,0 0.45071,0.3213 0.8325,0.71365 0.38179,0.39234 1.19441,1.13352 1.80609,1.64744 5.10314,4.28745 9.94992,5.26477 14.68335,2.96003 0.72452,-0.35277 1.36175,-0.5942 1.41645,-0.5364 0.0547,0.0578 0.44834,0.53342 0.87436,1.0573 0.90687,1.11517 0.95881,0.99791 -0.8232,1.85415 -1.4052,0.6752 -3.49029,1.19424 -4.79919,1.19424 z m -33.43672,0 c -1.3089,0 -3.39398,-0.51904 -4.79919,-1.19424 -1.78201,-0.85624 -1.73007,-0.73898 -0.82321,-1.85415 0.42602,-0.52388 0.81967,-0.9995 0.87437,-1.0573 0.0547,-0.0578 0.69194,0.18363 1.41645,0.5364 1.7098,0.83251 3.18498,1.18979 4.93665,1.19579 2.02266,0.007 3.60843,-0.38835 5.64978,-1.40766 1.94201,-0.9697 4.21914,-2.66519 5.903,-4.3956 0.38179,-0.39235 0.75651,-0.71365 0.83251,-0.71365 0.076,0 0.33495,0.20493 0.57567,0.45527 l 0.4377,0.45527 -0.76171,0.69298 c -3.11162,2.82967 -5.08897,4.27009 -7.56749,5.51387 -2.26957,1.13892 -4.65577,1.77302 -6.67453,1.77302 z m 66.03524,-1.39733 c -6.86779,0 -12.48709,-0.0331 -12.48709,-0.0739 0,-0.0408 0.6144,-0.72552 1.36529,-1.52135 l 1.36529,-1.44694 12.47779,-0.003 c 10.26078,-0.002 12.4778,0.0268 12.4778,0.16485 0,0.49095 -0.47467,1.456 -0.9493,1.93063 -1.00254,1.00255 -0.20083,0.9493 -14.24978,0.9493 z m -85.87176,0 h -12.74909 -12.74909 l -0.66043,-0.32866 c -0.36308,-0.18093 -0.82965,-0.53531 -1.03714,-0.78703 -0.35161,-0.42656 -0.76533,-1.38016 -0.76533,-1.76424 v -5.1e-4 c 0,-0.13807 2.22763,-0.16734 12.54135,-0.16434 l 12.54084,0.004 1.4397,1.52032 z m 6.70967,-1.08055 c -1.45592,0.002 -2.03587,-0.23468 -3.18172,-1.29553 -0.75377,-0.69787 -1.81967,-2.14134 -1.711,-2.31717 0.0322,-0.0522 0.74162,-0.50375 1.57664,-1.00304 0.83501,-0.4993 1.56588,-0.9071 1.62368,-0.90641 0.0578,6.9e-4 0.60005,0.67237 1.20509,1.49242 0.60505,0.82005 1.51047,1.93455 2.01228,2.47685 l 0.91261,0.98599 -0.61547,0.28267 c -0.49806,0.22871 -0.84575,0.28322 -1.82211,0.28422 z m 59.75346,-0.009 c -0.88616,-0.007 -1.28091,-0.0715 -1.75752,-0.28577 l -0.61495,-0.27647 0.85732,-0.92036 c 0.47139,-0.50619 1.36908,-1.60609 1.99522,-2.44429 0.62614,-0.8382 1.17463,-1.53621 1.21853,-1.55081 0.0852,-0.0284 2.88717,1.64074 3.08302,1.83658 0.16704,0.16704 -0.76074,1.50643 -1.58027,2.28151 -0.37517,0.35482 -0.99154,0.80811 -1.36994,1.00718 -0.6147,0.3234 -0.81019,0.36143 -1.83141,0.35243 z m -55.55682,-1.64124 -1.0113,-1.0356 c -1.07217,-1.09837 -3.08479,-3.70716 -3.01739,-3.91139 0.022,-0.0668 1.34358,-0.90976 2.93677,-1.87327 1.5932,-0.9635202 2.96121,-1.7480102 3.03961,-1.7420102 0.0784,0.006 1.23594,0.73984 2.57245,1.6314202 3.08553,2.05833 3.87664,2.35903 6.20582,2.35903 1.24348,0 1.69807,-0.0547 2.47014,-0.29714 1.72446,-0.54153 3.57547,-1.58819 5.20278,-2.9424502 0.41875,-0.34849 0.80806,-0.63407 0.86506,-0.63407 0.057,0 0.5881,0.48864 1.18029,1.0857202 l 1.07694,1.08572 -1.27021,1.24024 c -3.12095,3.04835 -6.23025,4.6724 -9.20719,4.80797 -2.20895,0.1006 -3.53456,-0.29766 -6.64869,-1.99574 -0.89765,-0.48948 -1.70198,-0.88987 -1.78748,-0.88987 -0.0855,0 -0.47625,0.4431 -0.86817,0.98444 -0.39192,0.54133 -0.94386,1.24164 -1.22628,1.55597 z m 51.34881,-0.0253 -0.75345,-0.91984 c -0.41436,-0.506 -0.88414,-1.06278 -1.04386,-1.23714 -0.15971,-0.17436 -0.38067,-0.45494 -0.49093,-0.62322 -0.11025,-0.16827 -0.27358,-0.30592 -0.36328,-0.30592 -0.0897,0 -0.89759,0.40039 -1.79524,0.88987 -3.11413,1.69808 -4.43973,2.09634 -6.64869,1.99574 -2.97693,-0.13557 -6.08623,-1.75962 -9.20719,-4.80797 l -1.27021,-1.24024 1.07694,-1.08572 c 0.59218,-0.5970802 1.12329,-1.0857202 1.18029,-1.0857202 0.057,0 0.44631,0.28558 0.86506,0.63407 1.62731,1.3542602 3.47833,2.4009202 5.20279,2.9424502 0.77206,0.24245 1.22665,0.29714 2.47013,0.29714 2.32373,0 3.11271,-0.29953 6.24303,-2.36936 1.35675,-0.8971102 2.53611,-1.6255102 2.62051,-1.6185102 0.21944,0.0179 5.8424,3.4659002 5.8906,3.6121902 0.0652,0.19776 -1.92457,2.79169 -2.99103,3.89898 z m -25.70024,-4.9289 -1.36374,-1.36374 -1.36375,-1.3637402 1.32964,-1.33429 c 0.73135,-0.73384 1.36045,-1.33429 1.39785,-1.33429 0.0374,0 0.66649,0.60045 1.39784,1.33429 l 1.32964,1.33429 -1.36374,1.3637402 z m 4.19457,-4.1976802 -1.74821,-1.72547 c -0.96138,-0.94881 -1.88168,-1.79438 -2.04535,-1.87948 -0.16367,-0.0851 -0.44499,-0.11816 -0.62529,-0.0729 -0.18223,0.0457 -1.1375,0.88009 -2.15077,1.87844 l -1.82263,1.79575 -0.37672,-0.3762 -0.37621,-0.3762 2.4412,-2.53887 c 1.34257,-1.39637 2.47052,-2.54813 2.50682,-2.55953 0.0362,-0.0114 1.16544,1.13116 2.50889,2.53938 l 2.44223,2.56057 -0.37724,0.37723 z"
  />
</svg>