<svg xmlns="http://www.w3.org/2000/svg" width="260" height="11" fill="currentColor" class="parentheses-left" viewBox="0 0 260 11">
  <path
    d="m 128.55099,9.527583 c -1.05492,-1.74899 -1.04062,-2.16912 -2.96643,-2.60913 -3.86778,-0.88372 -16.35349,-0.12595 -64.103465,-0.33702 L 0.09776034,6.310093 3.3958658e-7,5.591153 0.09776034,5.251763 45.606095,5.001413 c 25.029584,-0.13768 53.258161,-0.29643 62.730175,-0.35277 l 17.22183,-0.10244 c 0,0 1.40369,-0.27271 2.83162,-2.56339 1.57867,-2.53249006 0.84654,-2.77670006 2.68583,0.0693 1.19605,1.85066 1.54901,2.50472 2.70368,2.51041 l 17.48381,0.0862 c 9.41035,0.0563 37.58847,0.21509 62.61806,0.35277 l 45.50833,0.25035 0.17251,0.59817 -0.17251,0.46016 -61.38333,0.27134 c -49.93809,0.22075 -63.49798,-0.33715 -64.22594,0.0118 -2.08094,0.99742 -2.02997,1.75327 -2.84032,2.99274 -1.15338,1.76417 -1.14797,1.99884 -2.38885,-0.0584 z m 2.01433,-2.72174 c 0.4292,-0.43581 1.61638,-0.8687 1.61638,-0.8687 0,0 -1.16685,-0.64827 -1.5794,-1.15291 -0.41905,-0.5126 -0.82877,-1.80512 -0.82877,-1.80512 0,0 -0.50528,1.19035 -0.91731,1.67597 -0.43343,0.51084 -1.58232,1.23921 -1.58232,1.23921 0,0 0.96288,0.52598 1.35123,0.90393 0.46403,0.4516 1.12351,1.58465 1.12351,1.58465 0,0 0.40131,-1.15524 0.81668,-1.57703 z" />
</svg>
