<svg xmlns="http://www.w3.org/2000/svg" width="21" height="40" fill="currentColor" class="parentheses-left" viewBox="0 0 21 40">
  <path
     d="m 6.8785152,38.25204 c -0.901027,-0.68799 -1.638231,-1.31529 -1.638231,-1.39402 0,-0.34536 5.3778418,-3.57599 8.1929728,-4.92175 l 3.087888,-1.47617 0.909885,0.94972 0.909885,0.94972 -2.248205,1.98607 c -2.124948,1.8772 -6.7845158,5.15731 -7.3262238,5.15731 -0.137358,0 -0.986945,-0.5629 -1.887971,-1.25088 z m -1.285453,-15.32967 -5.46805496,-0.17639 -0.103576,-2.1489 c -0.07416,-1.53866 0.04033,-2.26833 0.40317999,-2.56947 C 1.0664432,17.49494 11.0561,18.45825 14.226809,19.35857 c 1.98344,0.56319 2.12579,0.67632 2.420837,1.92391 0.172414,0.72904 0.255979,1.37493 0.185699,1.4353 -0.302887,0.2602 -6.192934,0.36741 -11.2402828,0.20459 z M 16.120251,11.188 C 11.134315,7.8341509 5.9458402,3.5317409 5.9458402,3.2302909 c 0,-0.46303 4.1537838,-3.23906007 4.8334588,-3.230270068433 C 11.481638,0.00902083 13.705548,2.4060709 17.481494,7.2237609 20.378436,10.91994 20.6685,11.59716 19.800536,12.63814 l -0.648531,0.58921 z"/>
</svg>