<?xml version="1.0" encoding="UTF-8" standalone="no"?>
<!-- Created with Inkscape (http://www.inkscape.org/) -->

<svg
   width="20.971951mm"
   height="38.766102mm"
   viewBox="0 0 20.971951 38.766102"
   version="1.1"
   id="svg1"
   xml:space="preserve"
   xmlns="http://www.w3.org/2000/svg"
   xmlns:svg="http://www.w3.org/2000/svg"><defs
     id="defs1" /><g
     id="layer1"
     transform="translate(-77.328882,-107.58154)"><path
       fill="currentColor"
       d="m 86.466333,144.49529 c -1.955208,-1.0087 -4.210569,-2.37102 -5.011914,-3.02738 -1.441883,-1.18101 -1.451414,-1.20416 -0.919148,-2.23345 0.295814,-0.57204 0.725551,-0.96826 0.95497,-0.88049 0.22942,0.0878 2.004627,0.56962 3.944905,1.07078 4.08904,1.05617 6.450074,1.85209 7.104003,2.3948 0.378168,0.31385 0.357746,0.58542 -0.112394,1.49459 -0.70411,1.36162 -1.938376,3.05776 -2.207257,3.03323 -0.109033,-0.01 -1.797956,-0.84338 -3.753165,-1.85208 z m -5.551249,-15.50414 c -0.08904,-1.02125 0.261685,-1.91358 0.325838,-1.98875 0.06415,-0.0752 3.835368,-0.88255 8.380479,-1.79417 l 8.263838,-1.65749 0.209266,1.265 c 0.296945,1.79502 0.266625,4.96785 -0.04755,4.97617 -0.145521,0.004 -2.407709,0.23883 -5.027084,0.52216 -2.619375,0.28333 -5.626492,0.27857 -8.440651,0.22938 -1.184783,-0.0207 -3.548034,-0.2207 -3.548034,-0.2207 z M 78.24051,117.82531 c -0.602603,-0.56292 -0.911627,-0.99507 -0.911627,-1.18523 0,-0.19017 0.592159,-0.77828 1.100764,-1.31784 0.544684,-0.57785 1.978938,-2.09471 3.332801,-3.29533 1.435552,-1.27307 3.733422,-3.06947 4.336786,-3.38686 l 2.012262,-1.05851 2.268223,1.11851 c 2.199473,1.08461 2.249801,1.1394 1.660436,1.80767 -1.504997,1.7065 -11.327783,8.34107 -12.349333,8.34107 -0.195069,0 -0.84771,-0.46057 -1.450312,-1.02348 z"
       id="path2" /></g></svg>
