<?xml version="1.0" encoding="UTF-8" standalone="no"?>
<!-- Created with Inkscape (http://www.inkscape.org/) -->

<svg
   version="1.1"
   id="svg1"
   xml:space="preserve"
   xmlns="http://www.w3.org/2000/svg"
   xmlns:svg="http://www.w3.org/2000/svg"><defs
     id="defs1" /><path
     style="fill:currentColor"
     d="M 9.1374502,36.91375 C 7.182242,35.90505 4.926881,34.54273 4.125536,33.88637 2.683653,32.70536 2.674122,32.68221 3.206388,31.65292 c 0.295814,-0.57204 0.725551,-0.96826 0.95497,-0.88049 0.22942,0.0878 2.004627,0.56962 3.9449052,1.07078 4.0890398,1.05617 6.4500738,1.85209 7.1040028,2.3948 0.378168,0.31385 0.357746,0.58542 -0.112394,1.49459 -0.70411,1.36162 -1.938376,3.05776 -2.207257,3.03323 -0.109033,-0.01 -1.797956,-0.84338 -3.7531648,-1.85208 z M 3.586201,21.40961 c -0.08904,-1.02125 0.261685,-1.91358 0.325838,-1.98875 0.06415,-0.0752 3.8353682,-0.88255 8.380479,-1.79417 l 8.263838,-1.65749 0.209266,1.265 c 0.296945,1.79502 0.266625,4.96785 -0.04755,4.97617 -0.145521,0.004 -2.407709,0.23883 -5.027084,0.52216 -2.619375,0.28333 -5.626492,0.27857 -8.440651,0.22938 -1.184783,-0.0207 -3.548034,-0.2207 -3.548034,-0.2207 z M 0.91162704,10.24377 C 0.309024,9.6808498 0,9.2487001 0,9.05854 0,8.86837 0.592159,8.28026 1.100764,7.7407 1.645448,7.16285 3.079702,5.64599 4.433565,4.44537 5.869117,3.1723 8.1669872,1.3759 8.7703512,1.05851 L 10.782613,0 13.050836,1.11851 c 2.199473,1.08461 2.249801,1.1394 1.660436,1.80767 -1.504997,1.7065 -11.327783,8.34107 -12.349333,8.34107 -0.195069,0 -0.84771,-0.46057 -1.45031196,-1.02348 z"
     id="path2" /></svg>
