<?xml version="1.0" encoding="UTF-8" standalone="no"?>
<!-- Created with Inkscape (http://www.inkscape.org/) -->

<svg xmlns="http://www.w3.org/2000/svg">
  <path
    fill="currentColor"
    d="m 50.974262,145.20004 c -0.901027,-0.68799 -1.638231,-1.31529 -1.638231,-1.39402 0,-0.34536 5.377841,-3.57599 8.192972,-4.92175 l 3.087888,-1.47617 0.909885,0.94972 0.909885,0.94972 -2.248205,1.98607 c -2.124948,1.8772 -6.784515,5.15731 -7.326223,5.15731 -0.137358,0 -0.986945,-0.5629 -1.887971,-1.25088 z m -1.285453,-15.32967 -5.468055,-0.17639 -0.103576,-2.1489 c -0.07416,-1.53866 0.04033,-2.26833 0.40318,-2.56947 0.641832,-0.53267 10.631488,0.43064 13.802197,1.33096 1.98344,0.56319 2.12579,0.67632 2.420837,1.92391 0.172414,0.72904 0.255979,1.37493 0.185699,1.4353 -0.302887,0.2602 -6.192934,0.36741 -11.240282,0.20459 z M 60.215997,118.136 c -4.985936,-3.35385 -10.17441,-7.65626 -10.17441,-7.95771 0,-0.46303 4.153783,-3.23906 4.833458,-3.23027 0.702339,0.009 2.926249,2.40605 6.702195,7.22374 2.896942,3.69618 3.187006,4.3734 2.319042,5.41438 l -0.648531,0.58921 z"/>
</svg>